<svg width="600" height="348" viewBox="0 0 600 348" fill="none" xmlns="http://www.w3.org/2000/svg">
<path d="M12.8521 243.32V203.947L98.4307 69.1025H133.417V122.551H113.119L63.0364 201.907V203.539H186.967V243.32H12.8521ZM113.731 278V231.284L114.751 214.046V69.1025H161.977V278H113.731ZM299.831 283.1C281.607 283.1 265.899 278.782 252.707 270.146C239.515 261.442 229.349 248.964 222.209 232.712C215.069 216.392 211.533 196.773 211.601 173.857C211.669 150.941 215.239 131.493 222.311 115.513C229.451 99.4647 239.583 87.2586 252.707 78.8946C265.899 70.4625 281.607 66.2465 299.831 66.2465C318.055 66.2465 333.763 70.4625 346.955 78.8946C360.216 87.2586 370.416 99.4647 377.556 115.513C384.696 131.561 388.232 151.009 388.164 173.857C388.164 196.841 384.594 216.494 377.454 232.814C370.314 249.134 360.148 261.612 346.955 270.248C333.831 278.816 318.123 283.1 299.831 283.1ZM299.831 241.79C310.711 241.79 319.517 236.248 326.249 225.164C332.981 214.012 336.313 196.909 336.245 173.857C336.245 158.761 334.715 146.317 331.655 136.525C328.595 126.665 324.345 119.321 318.905 114.493C313.465 109.665 307.107 107.251 299.831 107.251C289.019 107.251 280.281 112.725 273.617 123.673C266.953 134.553 263.587 151.281 263.519 173.857C263.451 189.157 264.913 201.839 267.905 211.904C270.965 221.968 275.249 229.482 280.757 234.446C286.265 239.342 292.623 241.79 299.831 241.79ZM414.531 243.32V203.947L500.11 69.1025H535.096V122.551H514.798L464.715 201.907V203.539H588.646V243.32H414.531ZM515.41 278V231.284L516.43 214.046V69.1025H563.656V278H515.41Z" fill="black" fill-opacity="0.3"/>
<path d="M401.742 281.765C401.742 281.765 403.761 278.625 404.209 275.26C404.658 271.895 401.518 268.754 398.826 266.736C396.134 264.717 389.629 259.333 393.667 256.865C397.704 254.398 419.239 247.892 424.398 243.854C429.557 239.817 429.557 232.414 428.211 229.273C426.865 225.908 412.285 213.122 384.694 213.122C357.103 213.122 323.905 226.581 318.97 226.806C314.035 227.03 314.259 217.833 314.259 217.833L313.586 213.122H295.192L292.276 217.833C292.276 217.833 293.398 224.114 288.238 224.787C283.079 225.235 257.507 211.552 239.113 204.373C227.898 199.887 210.401 196.746 205.017 196.746C196.718 196.746 184.38 203.252 181.689 213.571C178.997 223.889 188.194 244.752 190.437 249.911C192.68 255.071 194.25 257.763 193.129 260.454C192.007 263.146 189.315 273.017 188.642 275.709C188.194 278.4 188.194 283.336 188.642 283.784C189.091 284.233 196.718 290.963 197.391 291.187C198.064 291.411 201.877 292.084 200.307 288.495C202.101 290.514 202.999 293.655 204.569 291.187C206.139 288.495 204.569 276.83 204.569 270.998C204.569 265.165 214.214 257.763 215.112 257.314C216.009 256.865 223.86 257.314 225.879 257.314C227.898 257.314 230.589 254.622 225.879 252.603C221.168 250.584 216.906 251.706 213.317 251.481C209.728 251.257 203.896 250.135 206.363 242.508C207.485 239.144 207.934 234.208 208.158 229.498H208.382C218.476 239.592 242.702 249.911 242.702 249.911L258.404 260.454L306.632 272.568L342.523 266.063L352.617 256.865C352.617 256.865 352.168 249.687 362.262 249.687C367.422 249.687 374.824 248.79 376.17 247.892" fill="white"/>
<path d="M203.671 293.43C202.774 293.43 201.877 292.757 201.428 291.86C200.082 292.757 198.288 292.533 197.391 292.308C196.942 292.084 196.718 292.084 189.988 286.252C189.091 285.354 188.194 284.681 188.194 284.681C186.399 283.335 187.745 275.26 187.745 275.26C188.194 272.568 191.11 262.473 192.231 259.557C192.904 257.762 192.231 255.968 190.437 252.379C190.212 251.706 189.764 251.033 189.54 250.135L189.315 249.687C181.688 232.189 178.772 219.627 180.567 212.897C183.483 202.578 195.82 195.176 205.242 195.176C205.242 195.176 205.242 195.176 205.466 195.176C211.298 195.176 228.795 198.541 239.786 203.027C247.189 205.943 255.488 209.757 263.564 213.346C274.331 218.281 285.547 223.441 288.238 223.216C289.136 223.216 289.808 222.768 290.481 222.095C291.379 220.749 291.379 218.73 291.154 218.057C291.154 217.608 291.154 217.384 291.379 217.16L294.295 212.449C294.519 212 294.968 211.776 295.416 211.776H313.81C314.483 211.776 315.156 212.224 315.156 213.122L315.829 217.833C315.829 219.403 316.053 223.665 317.624 225.235C318.072 225.684 318.521 225.908 318.969 225.684C320.091 225.684 323.904 224.562 328.391 222.992C341.85 218.73 364.505 212 384.694 212C412.958 212 428.211 225.46 429.557 229.049C431.127 233.087 430.903 240.938 425.295 245.425C421.93 247.892 413.182 251.257 405.331 254.173C400.396 255.968 395.91 257.762 394.339 258.66C393.666 259.108 393.666 259.333 393.666 259.557C393.666 260.903 395.91 263.595 399.499 266.287C401.518 267.857 406.228 271.671 405.331 276.157C404.658 279.746 402.863 283.111 402.639 283.111C402.19 283.784 401.293 284.008 400.62 283.56C399.947 283.111 399.723 282.214 400.172 281.541C400.172 281.541 401.966 278.625 402.415 275.484C402.863 272.344 398.826 269.203 397.704 268.306C395.012 266.287 390.526 262.473 390.75 259.108C390.75 258.211 391.199 256.865 392.769 255.968C394.564 254.846 399.05 253.276 404.209 251.257C411.387 248.565 420.36 245.2 423.276 242.957C427.987 239.368 427.762 232.638 426.641 229.946C425.295 226.806 410.939 214.692 384.245 214.692C364.505 214.692 342.074 221.646 328.615 225.684C323.456 227.254 319.867 228.376 318.521 228.376C317.175 228.376 316.053 227.927 314.932 227.03C312.24 224.338 312.24 218.506 312.24 217.833L311.791 214.692H295.416L293.173 218.281C293.397 219.403 293.398 222.095 291.827 224.114C290.93 225.46 289.36 226.133 287.79 226.357C284.425 226.581 275.677 222.768 261.545 216.262C253.469 212.673 245.394 208.86 237.992 205.943C226.552 201.457 209.055 198.316 204.569 198.316C197.166 198.316 185.278 204.373 182.586 214.019C181.464 218.281 181.913 227.927 191.11 249.014L191.334 249.462C191.558 250.135 192.007 251.033 192.231 251.706C194.026 255.743 195.147 258.211 194.026 261.127C192.904 263.819 190.212 273.689 189.764 276.157C189.315 278.625 189.315 281.99 189.54 283.111C189.988 283.335 190.437 284.008 191.334 284.681C193.129 286.252 196.718 289.392 197.615 290.065C198.288 290.29 198.736 290.065 198.961 290.065C198.961 290.065 198.961 289.841 198.736 289.392C198.512 288.719 198.736 288.046 199.185 287.598C199.858 287.149 200.531 287.373 200.98 287.822C201.653 288.495 202.101 289.168 202.55 289.841C202.774 290.065 202.998 290.514 203.223 290.738C204.12 289.392 203.671 282.663 203.447 278.176C203.223 275.484 202.998 273.241 202.998 271.222C202.998 264.268 214.214 256.416 214.214 256.192C214.887 255.743 216.457 255.743 222.963 255.968C224.084 255.968 225.206 255.968 225.654 255.968C226.327 255.968 226.776 255.519 227 255.295C227 255.071 226.776 254.622 225.206 253.949C222.29 252.603 219.373 252.827 216.682 252.827C215.336 252.827 214.214 252.827 213.093 252.827C210.625 252.603 207.26 252.154 205.466 249.462C204.12 247.668 204.12 244.976 205.017 242.06C205.915 239.368 206.587 235.106 206.812 229.497C206.812 229.049 207.036 228.825 207.26 228.6C207.485 228.376 207.933 228.152 208.382 228.152H208.606C209.055 228.152 209.279 228.376 209.504 228.6C219.373 238.47 243.151 248.565 243.375 248.789L259.077 259.333L306.856 271.222L342.074 264.717L351.495 256.192C351.495 255.071 351.944 253.052 353.514 251.257C355.533 249.238 358.449 248.116 362.487 248.116C368.095 248.116 374.6 247.219 375.497 246.546C376.17 246.098 377.067 246.322 377.516 246.771C377.964 247.444 377.964 248.116 377.291 248.789C375.273 250.36 365.627 250.808 362.487 250.808C359.346 250.808 357.103 251.481 355.757 253.052C354.411 254.622 354.411 256.416 354.411 256.416C354.411 256.865 354.187 257.314 353.963 257.538L343.868 266.735C343.644 266.96 343.42 266.96 343.196 267.184L307.305 273.69C307.081 273.69 306.856 273.69 306.632 273.69L258.404 261.576C258.18 261.576 258.18 261.576 257.956 261.352L242.254 250.808C241.581 250.584 220.495 241.611 209.504 231.965C209.055 236.452 208.606 240.041 207.709 242.508C207.036 244.752 207.036 246.546 207.709 247.668C208.831 249.238 211.522 249.687 213.317 249.911C214.214 249.911 215.336 249.911 216.457 249.911C219.373 249.911 222.738 249.687 226.327 251.257C229.916 252.827 229.916 254.846 229.692 255.744C229.243 257.538 227.449 258.66 225.654 258.66C224.981 258.66 224.084 258.66 222.738 258.66C220.719 258.66 216.233 258.435 215.336 258.66C213.766 259.557 205.69 266.511 205.69 270.998C205.69 272.792 205.915 275.26 205.915 277.727C206.363 284.906 206.587 289.841 205.466 291.86C205.69 292.308 205.017 293.43 203.671 293.43Z" fill="black"/>
<path d="M329.737 169.154C329.737 169.154 334.896 161.302 345.439 163.097C355.982 164.892 339.607 175.435 332.204 174.762L327.269 187.324L318.745 196.746L305.062 193.83L290.033 193.605L283.528 187.324L280.387 173.416C280.387 173.416 262.891 168.481 263.788 161.975C264.685 155.47 278.817 164.443 278.817 164.443C278.817 164.443 281.509 157.938 283.528 157.265C285.547 156.592 285.322 148.516 285.322 148.516L322.11 145.6L329.961 155.919V169.154H329.737Z" fill="white"/>
<path d="M318.969 198.092H318.745L305.062 195.176L290.257 194.951C289.808 194.951 289.584 194.727 289.36 194.503L282.855 188.222C282.63 187.997 282.406 187.773 282.406 187.549L279.49 174.538C275.677 173.416 261.769 168.705 262.666 161.751C262.891 159.732 264.012 159.059 264.909 158.611C268.498 157.041 275.228 160.405 278.593 162.424C279.714 159.957 281.509 156.592 283.528 155.919C283.976 155.47 284.425 151.881 284.201 148.516C284.201 147.843 284.649 147.17 285.546 146.946L322.334 144.03C322.783 144.03 323.231 144.254 323.68 144.478L331.531 154.797C331.755 155.022 331.755 155.246 331.755 155.695V165.341C334.447 163.097 339.382 160.181 346.336 161.527C350.598 162.2 351.047 164.443 350.822 165.789C350.149 170.276 339.831 175.884 333.774 176.108L329.064 187.773C329.064 187.997 328.839 187.997 328.839 188.222L320.315 197.643C319.642 197.868 319.194 198.092 318.969 198.092ZM290.706 191.811L305.286 192.035L318.521 194.951L326.372 186.203L331.307 173.865C331.531 173.192 332.204 172.968 332.653 172.968C337.588 173.416 347.233 167.808 347.682 165.116C347.682 164.668 346.56 164.219 345.439 163.995C336.017 162.424 331.307 169.378 331.083 169.603C330.634 170.051 330.185 170.276 329.512 170.276C328.839 170.051 328.391 169.603 328.391 168.93V156.143L321.213 146.722L286.668 149.638C286.668 153.003 286.219 157.714 283.976 158.386C283.303 158.611 281.284 161.751 280.163 164.892C279.939 165.341 279.714 165.565 279.266 165.789C278.817 166.014 278.368 165.789 278.144 165.565C274.331 163.097 268.05 160.181 265.807 161.078C265.582 161.078 265.358 161.303 265.134 161.976C264.685 166.014 275.452 170.5 280.836 171.846C281.284 172.07 281.733 172.295 281.733 172.968L284.873 186.427L290.706 191.811Z" fill="black"/>
<path d="M382.002 316.087C373.254 314.965 364.281 314.068 355.533 313.171C352.617 312.946 349.701 312.722 346.785 312.498C343.196 312.273 339.606 312.049 335.793 311.825C331.531 311.601 327.493 311.376 323.456 311.376C305.062 310.928 286.219 311.376 267.601 312.946C264.685 313.171 261.769 313.395 258.853 313.619C255.713 313.844 252.348 314.292 249.207 314.517C238.216 315.638 227.449 316.984 217.13 318.555C217.13 318.555 200.082 312.273 200.531 283.56C200.98 254.846 232.159 249.687 243.375 249.911C251.675 249.911 288.687 259.333 310.445 259.781C332.204 260.23 357.327 255.968 370.113 256.417C382.899 256.865 398.826 270.325 398.826 287.373C398.826 303.973 384.245 316.311 382.002 316.087Z" fill="#FFBE5C"/>
<path d="M217.13 319.9C216.906 319.9 216.682 319.9 216.682 319.9C216.009 319.676 198.736 312.722 199.185 283.56C199.634 255.743 228.122 248.341 243.375 248.341C246.74 248.341 254.367 249.687 264.012 251.706C278.817 254.622 297.435 257.987 310.446 258.211C322.334 258.435 335.345 257.314 346.785 256.192C356.206 255.295 364.281 254.622 370.113 254.846C383.797 255.295 400.396 269.876 400.396 287.149C400.396 298.814 393.666 308.908 387.386 314.517C385.815 316.087 383.348 317.657 381.778 317.433C372.805 316.311 363.833 315.189 355.533 314.517C352.617 314.292 349.701 314.068 346.785 313.844C343.196 313.619 339.607 313.395 336.017 313.171C331.98 312.946 327.718 312.722 323.68 312.722C306.184 312.273 287.341 312.722 267.826 314.292C264.91 314.517 261.993 314.741 259.077 314.965C255.937 315.19 252.572 315.638 249.432 315.862C238.665 316.984 227.897 318.33 217.13 319.9ZM243.151 251.033C229.019 251.033 202.326 257.762 201.877 283.335C201.428 308.684 214.887 315.862 217.13 316.984C227.673 315.414 238.44 314.068 248.983 312.946C252.124 312.722 255.488 312.273 258.629 312.049C261.545 311.825 264.461 311.6 267.377 311.376C286.892 310.03 305.735 309.357 323.456 309.806C327.493 309.806 331.755 310.03 335.793 310.254C339.382 310.479 342.971 310.703 346.785 310.927C349.701 311.152 352.617 311.376 355.533 311.6C364.057 312.273 372.805 313.395 382.002 314.517C384.245 314.068 397.256 302.627 397.256 286.925C397.256 270.997 382.226 257.987 369.889 257.538C364.281 257.314 356.206 257.987 347.009 258.884C335.569 260.006 322.559 261.127 310.446 260.903C296.987 260.679 278.368 257.089 263.339 254.173C254.142 252.603 246.291 251.033 243.151 251.033Z" fill="black"/>
<path d="M374.375 298.365C353.738 298.365 323.231 295.673 292.052 290.065C242.927 281.092 201.653 292.084 201.204 292.308C200.531 292.533 199.634 292.084 199.409 291.411C199.185 290.738 199.634 289.841 200.307 289.616C200.755 289.392 242.702 278.4 292.276 287.373C342.523 296.571 387.161 297.019 397.031 293.43C397.704 293.206 398.601 293.654 398.826 294.327C399.05 295 398.826 295.898 397.929 296.122C394.115 297.692 385.591 298.365 374.375 298.365Z" fill="black"/>
<path d="M199.634 288.271H199.409C199.185 288.271 193.802 286.476 193.129 282.214C192.456 278.4 193.129 272.792 193.129 272.343C193.129 271.67 193.577 271.446 194.25 271.446C194.923 271.446 195.372 272.119 195.148 272.568C195.148 272.568 194.699 278.4 195.148 281.765C195.596 284.681 200.082 286.252 200.082 286.252C200.531 286.476 200.98 286.925 200.755 287.598C200.531 287.822 200.082 288.271 199.634 288.271Z" fill="black"/>
<path d="M400.62 284.681C400.396 284.681 399.947 284.457 399.723 284.233C399.274 283.784 399.499 283.111 399.947 282.662C400.845 281.989 401.069 277.727 400.62 274.138C400.62 273.465 401.069 273.016 401.518 273.016C402.191 273.016 402.639 273.465 402.639 273.914C402.864 275.933 403.312 282.438 401.069 284.233C401.069 284.681 400.845 284.681 400.62 284.681Z" fill="black"/>
<path d="M305.286 189.568C304.613 189.568 303.94 188.895 303.94 188.222C303.716 181.492 303.043 170.724 302.819 167.808C301.921 167.808 300.351 167.584 299.454 167.808C298.781 170.051 297.435 179.249 296.538 187.324C296.538 187.997 295.865 188.67 294.968 188.446C294.295 188.446 293.622 187.549 293.846 186.876C296.313 166.238 297.211 165.789 297.659 165.34C299.005 164.219 303.94 164.892 304.613 165.116C305.51 165.565 305.735 165.789 306.856 187.997C306.856 188.895 306.183 189.568 305.286 189.568Z" fill="black"/>
<path d="M293.173 178.351C293.397 179.697 290.706 179.473 287.565 179.922C284.425 180.37 281.957 181.492 281.733 180.37C281.509 179.024 283.528 175.884 286.668 175.435C289.808 174.762 292.949 177.23 293.173 178.351Z" fill="#FF003D" fill-opacity="0.15"/>
<path d="M287.79 176.781C281.957 176.781 277.247 172.07 277.247 166.238C277.247 160.405 281.957 155.695 287.79 155.695C293.622 155.695 298.333 160.405 298.333 166.238C298.333 172.07 293.622 176.781 287.79 176.781ZM287.79 158.611C283.528 158.611 279.939 161.976 279.939 166.462C279.939 170.724 283.303 174.314 287.79 174.314C292.052 174.314 295.641 170.949 295.641 166.462C295.641 161.976 292.052 158.611 287.79 158.611Z" fill="black"/>
<path d="M307.305 179.922C307.081 181.268 309.997 181.268 313.362 181.941C316.726 182.614 319.418 184.184 319.642 182.614C319.867 181.268 317.848 177.679 314.483 176.781C311.118 176.108 307.754 178.576 307.305 179.922Z" fill="#FF003D" fill-opacity="0.15"/>
<path d="M314.259 178.127C314.035 178.127 313.81 178.127 313.586 178.127C310.67 177.903 308.202 176.781 306.184 174.538C304.389 172.519 303.268 169.827 303.492 166.911C303.716 161.078 308.651 156.592 314.708 156.816C320.54 157.04 325.026 162.2 324.802 168.032C324.577 170.949 323.456 173.416 321.213 175.435C319.418 177.23 316.951 178.127 314.259 178.127ZM306.632 167.135C306.632 169.154 307.305 171.173 308.651 172.743C309.997 174.313 312.016 175.211 314.035 175.211C316.054 175.211 318.072 174.538 319.643 173.192C321.213 171.846 322.11 169.827 322.11 167.808C322.334 163.546 318.97 159.957 314.708 159.732C310.446 159.732 306.857 162.873 306.632 167.135Z" fill="black"/>
<path d="M287.79 136.403C287.79 136.403 281.957 133.486 277.247 137.524C272.536 141.338 270.069 150.535 274.779 153.676C279.49 156.816 280.387 157.265 283.303 157.265C286.444 157.489 285.771 154.573 289.36 152.554C292.949 150.535 296.762 150.759 297.884 153.003C299.005 155.246 299.23 157.938 302.146 157.265C305.062 156.592 303.94 151.657 307.081 151.208C310.221 150.759 310.894 153.003 314.259 153.227C317.624 153.451 316.951 151.881 319.642 154.349C322.334 156.816 324.129 155.246 324.802 157.265C325.475 159.284 327.269 162.2 328.615 164.443C329.961 166.686 329.961 169.154 329.961 169.154C329.961 169.154 335.12 163.995 338.485 163.097C338.485 163.097 336.466 159.957 338.485 157.265C340.504 154.573 343.196 151.208 340.055 148.74C336.915 146.497 334.671 149.189 333.774 146.722C332.877 144.254 331.531 130.57 322.11 130.57C312.689 130.57 312.464 137.3 308.202 136.403C303.94 135.281 303.492 128.551 299.005 130.57C294.519 132.589 298.108 139.992 294.519 139.767C290.481 139.319 292.052 137.3 287.79 136.403Z" fill="black"/>
<path d="M329.737 184.184C329.512 182.165 333.101 177.23 332.204 176.332C331.307 175.435 328.166 177.903 326.82 179.473C325.475 180.819 323.68 185.081 319.867 185.754C316.053 186.427 312.24 187.1 309.997 187.324C307.754 187.773 305.286 188.222 305.286 188.222C305.286 188.222 303.492 190.913 299.678 190.913C295.865 190.913 295.192 188.895 295.192 187.997C295.192 187.1 295.192 187.1 295.192 187.1C295.192 187.1 290.033 186.651 286.892 183.735C283.752 180.819 280.387 177.454 280.612 175.211C280.612 175.211 278.593 180.595 278.817 184.632C279.041 188.67 279.041 191.811 278.817 194.054C278.593 196.297 277.471 201.008 278.817 202.803C280.163 204.373 280.387 206.616 280.612 209.084C280.836 211.551 288.687 216.038 294.743 217.384C301.024 218.954 300.351 219.627 303.94 219.851C307.754 220.076 308.875 218.281 311.567 217.384C314.259 216.486 317.848 215.365 321.213 212.673C324.577 209.981 327.493 204.597 326.82 199.886C326.148 195.176 329.737 193.381 329.737 190.465C329.737 187.997 329.961 186.427 329.737 184.184ZM300.576 201.457C299.454 201.457 298.557 200.335 298.557 198.765C298.557 197.195 299.454 196.073 300.576 196.073C301.697 196.073 302.594 197.195 302.594 198.765C302.594 200.335 301.697 201.457 300.576 201.457Z" fill="black"/>
<path d="M299.005 192.259C297.435 192.259 296.089 191.811 295.192 190.689C293.622 189.119 293.846 187.1 293.846 186.876C293.846 185.978 294.519 185.53 295.416 185.53C296.089 185.53 296.762 186.203 296.762 186.876C296.762 186.876 296.762 187.997 297.435 188.67C297.884 189.119 298.557 189.343 299.454 189.343C302.595 189.343 304.165 188.221 304.165 187.997C304.165 187.324 304.838 186.651 305.511 186.651C306.408 186.651 306.857 187.324 307.081 187.997C307.081 188.446 307.081 189.343 306.184 190.016C304.613 191.586 302.146 192.259 299.005 192.259C299.23 192.259 299.005 192.259 299.005 192.259Z" fill="black"/>
<path d="M355.533 313.17C352.617 312.946 349.701 312.722 346.785 312.497C343.196 312.273 339.607 312.049 335.793 311.824C335.793 311.824 344.093 302.178 341.626 281.989C339.158 261.8 333.774 258.884 332.429 258.884C331.083 258.884 329.961 258.884 329.961 258.884C329.961 258.884 330.185 255.07 333.999 254.621C337.812 254.173 339.382 255.519 342.747 254.621C346.112 253.724 356.879 253.5 362.935 276.605C368.768 299.486 355.533 313.17 355.533 313.17Z" fill="white"/>
<path d="M355.533 314.516C352.392 314.292 349.476 314.068 346.785 313.843C343.196 313.619 339.606 313.395 336.017 313.17C335.569 313.17 335.12 312.722 334.896 312.273C334.671 311.824 334.671 311.152 335.12 310.703C335.12 310.703 342.971 301.057 340.504 281.765C338.036 261.351 332.877 260.005 332.653 260.005C331.082 260.005 329.961 260.005 329.961 260.005C329.288 260.005 328.615 259.332 328.615 258.435C328.839 256.641 329.961 253.276 333.999 252.827C336.017 252.603 337.588 252.827 338.709 252.827C340.055 253.051 340.952 253.051 342.523 252.827C346.112 251.93 357.776 251.032 364.281 275.708C370.338 299.262 357.327 313.17 356.654 313.843C356.206 314.516 355.981 314.516 355.533 314.516ZM338.485 310.479C341.177 310.703 344.093 310.927 346.785 310.927C349.476 311.152 352.168 311.376 354.86 311.6C357.103 308.908 366.524 296.346 361.365 276.605C355.309 253.949 344.99 255.07 342.971 255.743C340.952 256.192 339.606 255.968 338.036 255.743C336.915 255.519 335.793 255.519 333.999 255.743C332.653 255.968 331.98 256.641 331.531 257.314C331.755 257.314 331.98 257.314 331.98 257.314C332.877 257.314 339.831 257.538 342.747 281.541C344.99 297.019 340.728 306.441 338.485 310.479Z" fill="black"/>
<path d="M267.601 312.722C264.685 312.946 261.769 313.17 258.853 313.395C255.712 313.619 252.348 314.068 249.207 314.292C249.207 314.292 238.665 303.973 237.992 284.008C237.094 264.043 245.17 252.378 260.199 249.686C260.199 249.686 263.564 248.789 265.582 249.686C267.826 250.584 270.293 251.481 272.76 251.705C275.228 251.93 274.779 255.07 274.779 255.07C274.779 255.07 256.385 274.362 266.704 310.03L267.601 312.722Z" fill="white"/>
<path d="M249.207 315.862C248.759 315.862 248.534 315.638 248.31 315.414C247.862 314.965 237.543 304.422 236.646 284.233C235.749 263.819 243.824 251.481 259.975 248.341C260.199 248.341 263.788 247.219 266.255 248.341C268.723 249.462 270.966 250.135 272.985 250.36C274.106 250.584 274.779 251.033 275.452 251.706C276.574 253.052 276.35 255.07 276.125 255.295C276.125 255.519 275.901 255.743 275.677 255.968C275.452 256.192 257.956 275.035 268.05 309.357L268.947 312.273C269.172 312.722 268.947 313.171 268.723 313.395C268.499 313.844 268.05 314.068 267.601 314.068C264.685 314.292 261.769 314.517 258.853 314.741C255.713 315.189 252.572 315.414 249.207 315.862ZM263.339 250.584C262.218 250.584 261.096 250.808 260.647 251.033C245.843 253.949 238.665 264.941 239.562 284.008C240.235 300.833 248.086 310.703 249.88 312.946C252.796 312.722 255.937 312.273 258.853 312.049C261.096 311.825 263.564 311.6 265.807 311.376L265.358 310.254C255.488 276.606 270.742 257.314 273.434 254.397C273.434 253.949 273.433 253.5 273.209 253.276C273.209 253.276 272.985 253.052 272.761 253.052C270.517 252.827 267.826 252.154 265.134 250.808C264.461 250.808 264.012 250.584 263.339 250.584Z" fill="black"/>
<path d="M197.615 270.997C197.615 270.997 197.839 272.343 197.615 275.035C197.391 277.727 198.737 286.476 200.531 288.495C202.326 290.514 203.223 293.654 204.793 291.187C206.363 288.495 204.793 276.83 204.793 270.997C204.793 265.165 214.439 257.762 215.336 257.314C216.233 256.865 224.084 257.314 226.103 257.314C228.122 257.314 230.814 254.622 226.103 252.603C221.392 250.584 217.13 251.705 213.541 251.481C209.952 251.257 204.12 250.135 206.588 242.508C207.709 239.143 208.158 234.208 208.382 229.497C208.831 223.44 208.607 218.057 208.607 218.057" fill="white"/>
<path d="M203.672 293.43C202.326 293.43 201.428 292.308 200.755 290.962C200.307 290.514 200.082 289.841 199.634 289.392C197.391 286.925 196.045 277.727 196.493 274.811C196.718 272.343 196.493 271.222 196.493 271.222C196.269 270.549 196.718 269.652 197.615 269.652C198.288 269.427 199.185 269.876 199.41 270.773C199.41 270.998 199.858 272.343 199.41 275.26C199.185 278.176 200.531 286.252 201.877 287.598C202.55 288.271 202.999 288.943 203.447 289.616C203.672 289.841 203.896 290.289 204.12 290.514C205.017 289.168 204.569 282.438 204.344 277.952C204.12 275.26 203.896 273.016 203.896 270.998C203.896 264.043 215.112 256.192 215.112 255.968C215.785 255.519 217.355 255.519 223.86 255.743C224.981 255.743 226.103 255.743 226.552 255.743C227.225 255.743 227.673 255.295 227.898 255.07C227.898 254.846 227.673 254.397 226.103 253.724C223.187 252.379 220.271 252.603 217.579 252.603C216.233 252.603 215.112 252.603 213.99 252.603C211.523 252.379 208.158 251.93 206.363 249.238C205.017 247.443 205.017 244.751 205.915 241.835C206.812 239.143 207.485 234.881 207.709 229.273C208.158 223.216 207.934 217.833 207.934 217.833C207.934 217.16 208.606 216.487 209.279 216.487C210.177 216.487 210.625 217.16 210.625 217.833C210.625 217.833 210.625 223.441 210.401 229.497C209.952 235.33 209.279 239.816 208.382 242.733C207.709 244.976 207.709 246.77 208.382 247.892C209.504 249.462 212.195 249.911 213.99 250.135C214.887 250.135 216.009 250.135 217.13 250.135C220.047 250.135 223.411 249.911 227 251.481C230.589 253.051 230.589 255.07 230.365 255.968C229.916 257.762 228.122 258.884 226.327 258.884C225.654 258.884 224.757 258.884 223.411 258.884C221.392 258.884 216.906 258.66 216.009 258.884C214.439 259.781 206.363 266.735 206.363 271.222C206.363 273.016 206.588 275.484 206.588 277.952C207.036 285.13 207.261 290.065 206.139 292.084C205.69 292.308 205.017 293.43 203.672 293.43Z" fill="black"/>
<path d="M396.583 290.738C396.358 290.738 396.358 290.738 396.134 290.738C394.339 290.289 393.891 287.822 393.667 285.354C393.442 281.989 391.423 276.606 388.507 273.241C388.059 272.792 387.61 272.119 386.937 271.446C383.797 267.184 378.862 260.903 368.319 259.781C356.206 258.435 356.206 258.211 356.206 256.865C356.206 256.416 356.654 255.968 357.103 255.519C358 254.846 363.833 250.584 369.216 249.911C372.805 249.462 375.721 246.995 378.637 244.527C379.983 243.406 381.105 242.508 382.451 241.387C384.021 240.265 385.591 238.022 387.386 235.778C390.526 231.516 394.115 226.805 399.274 225.46C399.947 225.235 400.845 225.684 401.069 226.581C401.293 227.254 400.845 228.151 399.947 228.376C395.685 229.497 392.545 233.76 389.629 237.573C387.834 240.041 386.04 242.508 384.021 243.854C382.675 244.751 381.553 245.873 380.208 246.77C377.067 249.462 373.702 252.154 369.44 252.827C366.524 253.276 363.384 254.846 361.141 256.192C362.711 256.416 364.954 256.641 368.543 257.089C380.208 258.435 385.815 265.614 389.18 269.876C389.629 270.549 390.077 271.222 390.526 271.67C393.891 275.708 396.134 281.541 396.358 285.354C396.358 286.476 396.583 287.149 396.807 287.598C397.031 287.373 397.256 286.925 397.48 286.476C399.274 283.335 397.256 277.054 396.358 274.811C396.134 274.138 396.358 273.241 397.031 273.016C397.704 272.792 398.601 273.016 398.826 273.689C399.274 274.587 402.639 282.887 399.723 287.822C399.274 289.168 398.153 290.738 396.583 290.738Z" fill="black"/>
<path d="M397.704 274.363C397.704 274.363 401.293 282.887 398.826 287.149C396.134 291.636 395.461 288.72 395.012 285.355C394.788 281.99 392.769 276.157 389.629 272.344C386.264 268.53 381.329 259.782 368.543 258.436C355.533 257.09 357.776 256.865 357.776 256.865C357.776 256.865 363.833 252.155 369.216 251.257C374.6 250.36 375.721 247.892 380.432 244.752" fill="white"/>
<path d="M396.583 290.738C396.358 290.738 396.358 290.738 396.134 290.738C394.339 290.29 393.891 287.822 393.666 285.354C393.442 281.99 391.423 276.606 388.507 273.241C388.059 272.792 387.61 272.119 386.937 271.446C383.797 267.184 378.862 260.903 368.319 259.781C356.206 258.435 356.206 258.211 356.206 256.865C356.206 256.417 356.654 255.968 357.103 255.519C358 254.846 363.833 250.584 369.216 249.911C372.581 249.462 374.151 248.116 376.394 246.322C377.291 245.425 378.413 244.527 379.983 243.63C380.656 243.181 381.553 243.406 382.002 244.079C382.451 244.752 382.226 245.649 381.553 246.098C380.208 246.995 379.086 247.892 378.189 248.789C375.721 250.808 373.927 252.379 369.665 253.052C366.749 253.5 363.608 255.071 361.365 256.417C362.935 256.641 365.178 256.865 368.767 257.314C380.432 258.66 386.04 265.838 389.405 270.1C389.853 270.773 390.302 271.446 390.75 271.895C394.115 275.933 396.358 281.765 396.583 285.579C396.583 286.7 396.807 287.373 397.031 287.822C397.256 287.598 397.48 287.149 397.704 286.7C399.499 283.56 397.48 277.279 396.583 275.035C396.358 274.362 396.583 273.465 397.256 273.241C397.928 273.017 398.826 273.241 399.05 273.914C399.499 274.811 402.863 283.111 399.947 288.046C399.274 289.168 398.153 290.738 396.583 290.738Z" fill="black"/>
</svg>
