<svg width="38" height="18" viewBox="0 0 38 18" fill="none" xmlns="http://www.w3.org/2000/svg">
    <path
        d="M3.224 1.96C3.20667 1.96 3.23267 1.86467 3.302 1.674C3.38867 1.466 3.57933 1.26667 3.874 1.076C4.16867 0.885333 4.654 0.781332 5.33 0.763999C5.93667 0.746666 6.396 0.824666 6.708 0.997999C7.02 1.154 7.228 1.31 7.332 1.466C7.45333 1.622 7.514 1.7 7.514 1.7C7.514 1.7 7.60933 1.92533 7.8 2.376C7.99067 2.82667 8.25067 3.42467 8.58 4.17C8.90933 4.898 9.27333 5.71267 9.672 6.614C10.0707 7.51533 10.4693 8.434 10.868 9.37C11.284 10.2887 11.6653 11.1553 12.012 11.97C12.376 12.7673 12.6793 13.4433 12.922 13.998C13.1647 14.5353 13.3207 14.8733 13.39 15.012C13.546 15.3413 13.6327 15.5753 13.65 15.714C13.6673 15.8527 13.6587 15.948 13.624 16C13.6067 16.0347 13.598 16.0607 13.598 16.078C13.4767 16.3207 13.234 16.5287 12.87 16.702C12.5233 16.8927 12.0987 16.9967 11.596 17.014C10.9027 17.0313 10.4 16.9533 10.088 16.78C9.776 16.624 9.568 16.4593 9.464 16.286C9.37733 16.13 9.34267 16.0607 9.36 16.078C9.36 16.078 9.26467 15.8787 9.074 15.48C8.90067 15.0813 8.69267 14.6047 8.45 14.05C8.20733 13.478 7.982 12.958 7.774 12.49C7.774 12.49 7.65267 12.49 7.41 12.49C7.18467 12.49 6.916 12.49 6.604 12.49C6.292 12.49 6.01467 12.49 5.772 12.49C5.54667 12.49 5.434 12.49 5.434 12.49C5.36467 12.7327 5.29533 13.036 5.226 13.4C5.15667 13.7467 5.096 14.0587 5.044 14.336C4.992 14.6133 4.966 14.752 4.966 14.752C4.966 14.752 4.92267 14.856 4.836 15.064C4.76667 15.272 4.56733 15.48 4.238 15.688C3.90867 15.896 3.36267 16 2.6 16C2.028 16 1.59467 15.9393 1.3 15.818C1.02267 15.6793 0.832 15.5233 0.728 15.35C0.641333 15.1767 0.598 15.0293 0.598 14.908C0.598 14.7693 0.598 14.7 0.598 14.7C0.632667 14.5267 0.702 14.1713 0.806 13.634C0.927333 13.0793 1.066 12.4207 1.222 11.658C1.39533 10.878 1.56867 10.0547 1.742 9.188C1.93267 8.32133 2.11467 7.46333 2.288 6.614C2.46133 5.76467 2.61733 4.99333 2.756 4.3C2.89467 3.58933 3.00733 3.026 3.094 2.61C3.18067 2.17667 3.224 1.96 3.224 1.96ZM5.954 6.068C5.93667 6.13733 5.91933 6.276 5.902 6.484L5.798 7.212C5.76333 7.61067 5.72 8.03533 5.668 8.486C5.616 8.93667 5.564 9.36133 5.512 9.76C5.47733 9.968 5.45133 10.098 5.434 10.15H5.772C5.98 10.15 6.20533 10.1413 6.448 10.124C6.69067 10.1067 6.90733 10.098 7.098 10.098C7.02867 9.95933 6.968 9.786 6.916 9.578C6.88133 9.35267 6.838 9.14467 6.786 8.954C6.682 8.55533 6.56067 8.13933 6.422 7.706C6.30067 7.27267 6.188 6.86533 6.084 6.484C6.032 6.276 5.98867 6.13733 5.954 6.068ZM15.5508 14.31C15.4815 13.2873 15.4035 12.2213 15.3168 11.112C15.2302 9.98533 15.1435 8.91067 15.0568 7.888C14.9875 6.86533 14.9268 5.99867 14.8748 5.288C14.8228 4.56 14.7795 4.092 14.7448 3.884C14.6928 3.48533 14.7102 3.21667 14.7968 3.078C14.9008 2.922 14.9528 2.844 14.9528 2.844C14.9528 2.844 14.8922 2.78333 14.7708 2.662C14.6495 2.52333 14.5888 2.376 14.5888 2.22C14.5888 1.94267 14.7535 1.71733 15.0828 1.544C15.4295 1.37067 15.8195 1.24067 16.2528 1.154C16.6862 1.06733 17.0675 1.00667 17.3968 0.972C17.7435 0.937333 17.9168 0.919999 17.9168 0.919999C17.9168 0.919999 18.0902 0.911332 18.4368 0.893999C18.7835 0.876666 19.2255 0.893999 19.7628 0.945999C20.3175 0.997999 20.9068 1.13667 21.5308 1.362C22.1722 1.57 22.7788 1.908 23.3508 2.376C23.9402 2.844 24.4342 3.48533 24.8328 4.3C25.2315 5.09733 25.4742 6.12 25.5608 7.368C25.6648 8.84133 25.5955 10.0807 25.3528 11.086C25.1275 12.0913 24.7808 12.9147 24.3128 13.556C23.8622 14.18 23.3422 14.6653 22.7528 15.012C22.1635 15.3587 21.5482 15.6013 20.9068 15.74C20.2828 15.8613 19.6848 15.9393 19.1128 15.974C18.5582 15.9913 18.0728 16 17.6568 16C17.0502 16 16.5908 15.9133 16.2788 15.74C15.9842 15.5667 15.7848 15.376 15.6808 15.168C15.5942 14.9427 15.5508 14.7433 15.5508 14.57C15.5508 14.3967 15.5508 14.31 15.5508 14.31ZM18.3328 3.26L19.4768 13.79C19.4768 13.79 19.5548 13.7813 19.7108 13.764C19.8668 13.7467 20.0575 13.6687 20.2828 13.53C20.5255 13.3913 20.7508 13.14 20.9588 12.776C21.1842 12.412 21.3575 11.9007 21.4788 11.242C21.6002 10.566 21.6262 9.69067 21.5568 8.616C21.4875 7.264 21.3402 6.21533 21.1148 5.47C20.9068 4.70733 20.6468 4.16133 20.3348 3.832C20.0402 3.50267 19.7195 3.312 19.3728 3.26C19.0262 3.208 18.6795 3.208 18.3328 3.26ZM26.8011 2.74C26.8011 2.74 26.8011 2.65333 26.8011 2.48C26.8011 2.30667 26.8445 2.09867 26.9311 1.856C27.0178 1.61333 27.1998 1.39667 27.4771 1.206C27.7545 0.997999 28.1705 0.876666 28.7251 0.842C29.2798 0.807333 29.7131 0.850666 30.0251 0.972C30.3545 1.09333 30.5885 1.24933 30.7271 1.44C30.8831 1.61333 30.9785 1.778 31.0131 1.934C31.0651 2.07267 31.0911 2.142 31.0911 2.142L32.2611 10.93L33.1971 3.962C33.1971 3.962 33.2145 3.87533 33.2491 3.702C33.2838 3.51133 33.3705 3.312 33.5091 3.104C33.6651 2.87867 33.8905 2.69667 34.1851 2.558C34.4798 2.402 34.8871 2.36733 35.4071 2.454C35.9271 2.52333 36.2998 2.67067 36.5251 2.896C36.7505 3.104 36.8891 3.32933 36.9411 3.572C36.9931 3.79733 37.0018 3.99667 36.9671 4.17C36.9325 4.34333 36.9151 4.43 36.9151 4.43C36.9151 4.43 36.8631 4.67267 36.7591 5.158C36.6551 5.626 36.5165 6.23267 36.3431 6.978C36.1871 7.72333 36.0138 8.52067 35.8231 9.37C35.6325 10.202 35.4505 10.9993 35.2771 11.762C35.1038 12.5073 34.9651 13.1227 34.8611 13.608C34.7571 14.0933 34.6965 14.3447 34.6791 14.362C34.6618 14.3793 34.6185 14.4747 34.5491 14.648C34.4971 14.804 34.3931 14.9947 34.2371 15.22C34.0811 15.428 33.8385 15.61 33.5091 15.766C33.1971 15.922 32.7811 16 32.2611 16C31.5678 16 31.0478 15.8873 30.7011 15.662C30.3545 15.4193 30.1291 15.1853 30.0251 14.96C29.9211 14.7347 29.8691 14.622 29.8691 14.622L26.8011 2.74Z"
        fill="inherit" />
</svg>