<svg width="24" height="23" viewBox="0 0 24 23" fill="none" xmlns="http://www.w3.org/2000/svg">
    <path fill-rule="evenodd" clip-rule="evenodd"
        d="M22.4702 2.73928C22.9475 2.34152 23.012 1.63213 22.6143 1.15482C22.2165 0.677509 21.5071 0.61302 21.0298 1.01078L15.5636 5.56592C15.0648 5.98162 14.3864 6.10963 13.7703 5.90429L10.5375 4.82669C8.93399 4.29217 7.16661 4.79002 6.07784 6.08295L1.38947 11.6504C0.98926 12.1256 1.05009 12.8353 1.52535 13.2356C2.0006 13.6358 2.71031 13.5749 3.11053 13.0997L7.79889 7.53225C8.29379 6.94456 9.09714 6.71826 9.82603 6.96122L13.0588 8.03883C14.4141 8.49058 15.9066 8.20896 17.004 7.29442L22.4702 2.73928ZM20.25 12H17.25C16.8358 12 16.5 12.3358 16.5 12.75V15.75V19.5C16.5 19.9142 16.8358 20.25 17.25 20.25H19.5H20.25C20.6642 20.25 21 19.9142 21 19.5V12.75C21 12.3358 20.6642 12 20.25 12ZM14.25 19.5C14.25 19.9142 13.9142 20.25 13.5 20.25H10.5C10.0858 20.25 9.75 19.9142 9.75 19.5V18.75V15.75C9.75 15.3358 10.0858 15 10.5 15H13.5C13.9142 15 14.25 15.3358 14.25 15.75V19.5ZM7.5 19.5C7.5 19.9142 7.16421 20.25 6.75 20.25H5.25H3.75C3.33579 20.25 3 19.9142 3 19.5V18.75C3 18.3358 3.33579 18 3.75 18H6.75C7.16421 18 7.5 18.3358 7.5 18.75V19.5ZM3.75 22.5H5.25H6.75H10.5H13.5H17.25H19.5H20.25C21.9069 22.5 23.25 21.1569 23.25 19.5V12.75C23.25 11.0932 21.9069 9.75003 20.25 9.75003H17.25C15.5931 9.75003 14.25 11.0932 14.25 12.75V12.8445C14.0103 12.7828 13.759 12.75 13.5 12.75H10.5C8.84315 12.75 7.5 14.0932 7.5 15.75V15.8445C7.26029 15.7828 7.00898 15.75 6.75 15.75H3.75C2.09315 15.75 0.75 17.0932 0.75 18.75V19.5C0.75 21.1569 2.09315 22.5 3.75 22.5Z"
        fill="inherit" />
</svg>