<svg width="24" height="24" viewBox="0 0 24 24" fill="none" xmlns="http://www.w3.org/2000/svg">
    <g clip-path="url(#clip0_589_47190)">
        <path fill-rule="evenodd" clip-rule="evenodd"
            d="M14.1213 1.3943C12.9497 0.222732 11.0502 0.222732 9.87867 1.3943L8.27205 3.00092H5.99999C4.34314 3.00092 2.99999 4.34407 2.99999 6.00092V8.27298L1.39339 9.87959C0.221816 11.0512 0.221816 12.9507 1.39339 14.1222L2.99999 15.7288V18.0009C2.99999 19.6578 4.34314 21.0009 5.99999 21.0009H8.27208L9.87867 22.6075C11.0502 23.7791 12.9497 23.7791 14.1213 22.6075L15.7279 21.0009H18C19.6568 21.0009 21 19.6578 21 18.0009V15.7288L22.6066 14.1222C23.7782 12.9507 23.7782 11.0512 22.6066 9.87959L21 8.27299V6.00092C21 4.34407 19.6568 3.00092 18 3.00092H15.7279L14.1213 1.3943ZM16.65 9.67591C17.0228 9.17886 16.9221 8.47371 16.425 8.10092C15.928 7.72812 15.2228 7.82886 14.85 8.32592L11.1283 13.2882L9.04554 11.2054C8.6062 10.7661 7.89389 10.7661 7.45455 11.2054C7.01521 11.6448 7.01521 12.3571 7.45455 12.7964L10.4546 15.7964C10.6852 16.027 11.0045 16.1462 11.3298 16.1231C11.6551 16.1 11.9544 15.9368 12.15 15.6759L16.65 9.67591Z"
            fill="inherit" />
    </g>
    <defs>
        <clipPath id="clip0_589_47190">
            <rect width="24" height="24" fill="inherit" />
        </clipPath>
    </defs>
</svg>