<svg width="14" height="15" viewBox="0 0 14 15" fill="none" xmlns="http://www.w3.org/2000/svg">
    <path fill-rule="evenodd" clip-rule="evenodd"
        d="M8.0002 2H6.0002C5.72406 2 5.5002 2.22386 5.5002 2.5V3H8.5002V2.5C8.5002 2.22386 8.27634 2 8.0002 2ZM10.0002 3V2.5C10.0002 1.39543 9.10477 0.5 8.0002 0.5H6.0002C4.89563 0.5 4.0002 1.39543 4.0002 2.5V3H3.00141H1.50011H1.25024C0.836031 3 0.500244 3.33579 0.500244 3.75C0.500244 4.16421 0.836031 4.5 1.25024 4.5H1.56261L1.88032 12.1249C1.94727 13.7318 3.26944 15 4.87772 15H9.12251C10.7308 15 12.053 13.7318 12.1199 12.1249L12.4376 4.5H12.7502C13.1644 4.5 13.5002 4.16421 13.5002 3.75C13.5002 3.33579 13.1644 3 12.7502 3H12.5001H10.9988H10.0002ZM10.9363 4.5H10.0002H8.5002H5.5002H4.0002H3.06391L3.37902 12.0624C3.41249 12.8659 4.07358 13.5 4.87772 13.5H9.12251C9.92665 13.5 10.5877 12.8659 10.6212 12.0624L10.9363 4.5ZM4.75 6.5V11.5C4.75 11.9142 5.08579 12.25 5.5 12.25C5.91421 12.25 6.25 11.9142 6.25 11.5V6.5C6.25 6.08579 5.91421 5.75 5.5 5.75C5.08579 5.75 4.75 6.08579 4.75 6.5ZM8.5 5.75C8.91421 5.75 9.25 6.08579 9.25 6.5V11.5C9.25 11.9142 8.91421 12.25 8.5 12.25C8.08579 12.25 7.75 11.9142 7.75 11.5V6.5C7.75 6.08579 8.08579 5.75 8.5 5.75Z"
        fill="inherit" />
</svg>