<svg width="48" height="48" viewBox="0 0 48 48" fill="none" xmlns="http://www.w3.org/2000/svg">
<rect x="10.8379" y="6.16406" width="30.457" height="38.6836" rx="1.4" fill="url(#paint0_linear_445_33878)"/>
<rect x="10.8379" y="6.16406" width="30.457" height="38.6836" rx="1.4" fill="url(#paint1_linear_445_33878)"/>
<rect x="10.8379" y="6.16406" width="30.457" height="38.6836" rx="1.4" fill="url(#paint2_linear_445_33878)"/>
<rect x="10.8379" y="6.16406" width="30.457" height="38.6836" rx="1.4" fill="url(#paint3_linear_445_33878)"/>
<rect x="10.8379" y="6.16406" width="30.457" height="38.6836" rx="1.4" fill="url(#paint4_radial_445_33878)"/>
<rect x="10.8379" y="6.16406" width="30.457" height="38.6836" rx="1.4" fill="url(#paint5_radial_445_33878)"/>
<rect x="10.8379" y="6.16406" width="30.457" height="38.6836" rx="1.4" fill="url(#paint6_radial_445_33878)"/>
<rect x="10.8379" y="6.16406" width="30.457" height="38.6836" rx="1.4" fill="url(#paint7_linear_445_33878)"/>
<rect x="10.8379" y="6.16406" width="30.457" height="38.6836" rx="1.4" fill="url(#paint8_radial_445_33878)"/>
<rect x="10.8379" y="6.16406" width="30.457" height="38.6836" rx="1.4" fill="url(#paint9_radial_445_33878)"/>
<rect x="10.8379" y="6.16406" width="30.457" height="38.6836" rx="1.4" fill="url(#paint10_radial_445_33878)"/>
<rect x="10.8379" y="6.16406" width="30.457" height="38.6836" rx="1.4" fill="url(#paint11_radial_445_33878)"/>
<rect x="10.8379" y="6.16406" width="30.457" height="38.6836" rx="1.4" fill="url(#paint12_radial_445_33878)"/>
<rect x="10.8379" y="6.16406" width="30.457" height="38.6836" rx="1.4" fill="url(#paint13_radial_445_33878)"/>
<rect x="10.8379" y="6.16406" width="30.457" height="38.6836" rx="1.4" fill="url(#paint14_radial_445_33878)" fill-opacity="0.49"/>
<path d="M28.4898 6.16406H13.3338C12.2624 6.16406 10.941 7.10426 10.941 8.26406L10.8633 42.6969C10.8633 43.4967 12.0244 43.9915 12.8239 43.9701L34.2978 43.3965C35.2888 43.3965 36.0921 41.4915 36.0921 40.4187L35.4806 14.3064C35.4806 13.9384 35.3455 13.5855 35.1051 13.3253L28.4898 6.16406Z" fill="url(#paint15_linear_445_33878)"/>
<path d="M28.4898 6.16406H13.3338C12.2624 6.16406 10.941 7.10426 10.941 8.26406L10.8633 42.6969C10.8633 43.4967 12.0244 43.9915 12.8239 43.9701L34.2978 43.3965C35.2888 43.3965 36.0921 41.4915 36.0921 40.4187L35.4806 14.3064C35.4806 13.9384 35.3455 13.5855 35.1051 13.3253L28.4898 6.16406Z" fill="url(#paint16_radial_445_33878)"/>
<path d="M29.7386 6.53095H13.257C12.0919 6.53095 10.6549 7.47111 10.6549 8.63095L10.5703 43.0638C10.5703 43.8765 11.7848 44.3595 12.5973 44.3396L36.0546 43.7633C37.1323 43.7633 38.0059 41.8584 38.0059 40.7856L37.3408 14.6733C37.3408 14.3053 37.194 11.4562 36.9326 11.196C37.3794 7.63344 35.4079 6.82353 29.7386 6.53095Z" fill="url(#paint17_linear_445_33878)"/>
<path d="M29.7386 6.53095H13.257C12.0919 6.53095 10.6549 7.47111 10.6549 8.63095L10.5703 43.0638C10.5703 43.8765 11.7848 44.3595 12.5973 44.3396L36.0546 43.7633C37.1323 43.7633 38.0059 41.8584 38.0059 40.7856L37.3408 14.6733C37.3408 14.3053 37.194 11.4562 36.9326 11.196C37.3794 7.63344 35.4079 6.82353 29.7386 6.53095Z" fill="url(#paint18_linear_445_33878)"/>
<path d="M29.7386 6.53095H13.257C12.0919 6.53095 10.6549 7.47111 10.6549 8.63095L10.5703 43.0638C10.5703 43.8765 11.7848 44.3595 12.5973 44.3396L36.0546 43.7633C37.1323 43.7633 38.0059 41.8584 38.0059 40.7856L37.3408 14.6733C37.3408 14.3053 37.194 11.4562 36.9326 11.196C37.3794 7.63344 35.4079 6.82353 29.7386 6.53095Z" fill="url(#paint19_linear_445_33878)"/>
<path d="M26.975 3.4742C26.7127 3.21184 26.3568 3.06445 25.9858 3.06445H7.42339C6.34172 3.06445 5.46484 3.94133 5.46484 5.023V40.1568C5.46484 41.2385 6.34172 42.1154 7.42339 42.1154H34.1744C35.256 42.1154 36.1329 41.2385 36.1329 40.1568V13.2116C36.1329 12.8405 35.9855 12.4847 35.7232 12.2223L26.975 3.4742Z" fill="url(#paint20_linear_445_33878)"/>
<path d="M26.975 3.4742C26.7127 3.21184 26.3568 3.06445 25.9858 3.06445H7.42339C6.34172 3.06445 5.46484 3.94133 5.46484 5.023V40.1568C5.46484 41.2385 6.34172 42.1154 7.42339 42.1154H34.1744C35.256 42.1154 36.1329 41.2385 36.1329 40.1568V13.2116C36.1329 12.8405 35.9855 12.4847 35.7232 12.2223L26.975 3.4742Z" fill="url(#paint21_linear_445_33878)"/>
<path d="M26.975 3.4742C26.7127 3.21184 26.3568 3.06445 25.9858 3.06445H7.42339C6.34172 3.06445 5.46484 3.94133 5.46484 5.023V40.1568C5.46484 41.2385 6.34172 42.1154 7.42339 42.1154H34.1744C35.256 42.1154 36.1329 41.2385 36.1329 40.1568V13.2116C36.1329 12.8405 35.9855 12.4847 35.7232 12.2223L26.975 3.4742Z" fill="url(#paint22_linear_445_33878)"/>
<path d="M26.975 3.4742C26.7127 3.21184 26.3568 3.06445 25.9858 3.06445H7.42339C6.34172 3.06445 5.46484 3.94133 5.46484 5.023V40.1568C5.46484 41.2385 6.34172 42.1154 7.42339 42.1154H34.1744C35.256 42.1154 36.1329 41.2385 36.1329 40.1568V13.2116C36.1329 12.8405 35.9855 12.4847 35.7232 12.2223L26.975 3.4742Z" fill="url(#paint23_linear_445_33878)" fill-opacity="0.13"/>
<path d="M26.975 3.4742C26.7127 3.21184 26.3568 3.06445 25.9858 3.06445H7.42339C6.34172 3.06445 5.46484 3.94133 5.46484 5.023V40.1568C5.46484 41.2385 6.34172 42.1154 7.42339 42.1154H34.1744C35.256 42.1154 36.1329 41.2385 36.1329 40.1568V13.2116C36.1329 12.8405 35.9855 12.4847 35.7232 12.2223L26.975 3.4742Z" fill="url(#paint24_linear_445_33878)"/>
<path d="M26.975 3.4742C26.7127 3.21184 26.3568 3.06445 25.9858 3.06445H7.42339C6.34172 3.06445 5.46484 3.94133 5.46484 5.023V40.1568C5.46484 41.2385 6.34172 42.1154 7.42339 42.1154H34.1744C35.256 42.1154 36.1329 41.2385 36.1329 40.1568V13.2116C36.1329 12.8405 35.9855 12.4847 35.7232 12.2223L26.975 3.4742Z" fill="url(#paint25_linear_445_33878)"/>
<path d="M26.975 3.4742C26.7127 3.21184 26.3568 3.06445 25.9858 3.06445H7.42339C6.34172 3.06445 5.46484 3.94133 5.46484 5.023V40.1568C5.46484 41.2385 6.34172 42.1154 7.42339 42.1154H34.1744C35.256 42.1154 36.1329 41.2385 36.1329 40.1568V13.2116C36.1329 12.8405 35.9855 12.4847 35.7232 12.2223L26.975 3.4742Z" fill="url(#paint26_radial_445_33878)"/>
<path d="M26.975 3.4742C26.7127 3.21184 26.3568 3.06445 25.9858 3.06445H7.42339C6.34172 3.06445 5.46484 3.94133 5.46484 5.023V40.1568C5.46484 41.2385 6.34172 42.1154 7.42339 42.1154H34.1744C35.256 42.1154 36.1329 41.2385 36.1329 40.1568V13.2116C36.1329 12.8405 35.9855 12.4847 35.7232 12.2223L26.975 3.4742Z" fill="url(#paint27_radial_445_33878)"/>
<path d="M26.975 3.4742C26.7127 3.21184 26.3568 3.06445 25.9858 3.06445H7.42339C6.34172 3.06445 5.46484 3.94133 5.46484 5.023V40.1568C5.46484 41.2385 6.34172 42.1154 7.42339 42.1154H34.1744C35.256 42.1154 36.1329 41.2385 36.1329 40.1568V13.2116C36.1329 12.8405 35.9855 12.4847 35.7232 12.2223L26.975 3.4742Z" fill="url(#paint28_radial_445_33878)"/>
<path d="M26.975 3.4742C26.7127 3.21184 26.3568 3.06445 25.9858 3.06445H7.42339C6.34172 3.06445 5.46484 3.94133 5.46484 5.023V40.1568C5.46484 41.2385 6.34172 42.1154 7.42339 42.1154H34.1744C35.256 42.1154 36.1329 41.2385 36.1329 40.1568V13.2116C36.1329 12.8405 35.9855 12.4847 35.7232 12.2223L26.975 3.4742Z" fill="url(#paint29_linear_445_33878)"/>
<path d="M26.975 3.4742C26.7127 3.21184 26.3568 3.06445 25.9858 3.06445H7.42339C6.34172 3.06445 5.46484 3.94133 5.46484 5.023V40.1568C5.46484 41.2385 6.34172 42.1154 7.42339 42.1154H34.1744C35.256 42.1154 36.1329 41.2385 36.1329 40.1568V13.2116C36.1329 12.8405 35.9855 12.4847 35.7232 12.2223L26.975 3.4742Z" fill="url(#paint30_linear_445_33878)"/>
<path d="M26.975 3.4742C26.7127 3.21184 26.3568 3.06445 25.9858 3.06445H7.42339C6.34172 3.06445 5.46484 3.94133 5.46484 5.023V40.1568C5.46484 41.2385 6.34172 42.1154 7.42339 42.1154H34.1744C35.256 42.1154 36.1329 41.2385 36.1329 40.1568V13.2116C36.1329 12.8405 35.9855 12.4847 35.7232 12.2223L26.975 3.4742Z" fill="url(#paint31_linear_445_33878)" fill-opacity="0.55"/>
<path d="M26.975 3.4742C26.7127 3.21184 26.3568 3.06445 25.9858 3.06445H7.42339C6.34172 3.06445 5.46484 3.94133 5.46484 5.023V40.1568C5.46484 41.2385 6.34172 42.1154 7.42339 42.1154H34.1744C35.256 42.1154 36.1329 41.2385 36.1329 40.1568V13.2116C36.1329 12.8405 35.9855 12.4847 35.7232 12.2223L26.975 3.4742Z" fill="url(#paint32_linear_445_33878)" fill-opacity="0.55"/>
<path d="M26.975 3.4742C26.7127 3.21184 26.3568 3.06445 25.9858 3.06445H7.42339C6.34172 3.06445 5.46484 3.94133 5.46484 5.023V40.1568C5.46484 41.2385 6.34172 42.1154 7.42339 42.1154H34.1744C35.256 42.1154 36.1329 41.2385 36.1329 40.1568V13.2116C36.1329 12.8405 35.9855 12.4847 35.7232 12.2223L26.975 3.4742Z" fill="url(#paint33_linear_445_33878)"/>
<path d="M24.9326 3.64343C24.9326 3.36168 25.0134 3.12353 24.8601 3.09341C25.0058 3.1027 26.2246 2.98769 26.3558 3.14067C26.5282 3.20836 26.4246 3.48352 26.5596 3.61532C26.5635 3.61916 26.5674 3.62302 26.5713 3.62693L35.3194 12.3751C35.3461 12.4017 35.3716 12.4294 35.3958 12.4579C35.5152 12.5983 35.5768 12.5676 35.6329 12.741C35.6776 12.8789 35.9981 12.5934 35.9981 12.741L36.1056 12.9559V13.2559C36.1056 13.2559 36.1728 13.6068 35.9981 13.6068L26.9433 14.6158C25.5055 14.6158 24.1513 12.9631 24.1513 12.0359L24.9326 3.64343Z" fill="url(#paint34_linear_445_33878)"/>
<path d="M24.9326 3.64343C24.9326 3.36168 25.0134 3.12353 24.8601 3.09341C25.0058 3.1027 26.2246 2.98769 26.3558 3.14067C26.5282 3.20836 26.4246 3.48352 26.5596 3.61532C26.5635 3.61916 26.5674 3.62302 26.5713 3.62693L35.3194 12.3751C35.3461 12.4017 35.3716 12.4294 35.3958 12.4579C35.5152 12.5983 35.5768 12.5676 35.6329 12.741C35.6776 12.8789 35.9981 12.5934 35.9981 12.741L36.1056 12.9559V13.2559C36.1056 13.2559 36.1728 13.6068 35.9981 13.6068L26.9433 14.6158C25.5055 14.6158 24.1513 12.9631 24.1513 12.0359L24.9326 3.64343Z" fill="url(#paint35_linear_445_33878)"/>
<path d="M24.9326 3.64343C24.9326 3.36168 25.0134 3.12353 24.8601 3.09341C25.0058 3.1027 26.2246 2.98769 26.3558 3.14067C26.5282 3.20836 26.4246 3.48352 26.5596 3.61532C26.5635 3.61916 26.5674 3.62302 26.5713 3.62693L35.3194 12.3751C35.3461 12.4017 35.3716 12.4294 35.3958 12.4579C35.5152 12.5983 35.5768 12.5676 35.6329 12.741C35.6776 12.8789 35.9981 12.5934 35.9981 12.741L36.1056 12.9559V13.2559C36.1056 13.2559 36.1728 13.6068 35.9981 13.6068L26.9433 14.6158C25.5055 14.6158 24.1513 12.9631 24.1513 12.0359L24.9326 3.64343Z" fill="url(#paint36_linear_445_33878)"/>
<path d="M26.4486 3.49043C26.4486 3.20867 26.2275 3.09714 26.0742 3.06702C26.2199 3.0763 26.3623 3.10828 26.4964 3.16094C26.6688 3.22863 26.8276 3.33052 26.9625 3.46231C26.9665 3.46616 26.9704 3.47002 26.9743 3.47393L35.7224 12.2221C35.7491 12.2487 35.7745 12.2764 35.7988 12.3049C35.9182 12.4453 36.008 12.6071 36.0642 12.7805C36.1088 12.9184 36.1321 13.0636 36.1321 13.2113V13.2996C36.1321 12.9748 35.8972 12.7805 35.7224 12.7805H28.1274C27.2003 12.7805 26.4486 12.0289 26.4486 11.1017V3.49043Z" fill="url(#paint37_linear_445_33878)"/>
<path d="M26.4486 3.49043C26.4486 3.20867 26.2275 3.09714 26.0742 3.06702C26.2199 3.0763 26.3623 3.10828 26.4964 3.16094C26.6688 3.22863 26.8276 3.33052 26.9625 3.46231C26.9665 3.46616 26.9704 3.47002 26.9743 3.47393L35.7224 12.2221C35.7491 12.2487 35.7745 12.2764 35.7988 12.3049C35.9182 12.4453 36.008 12.6071 36.0642 12.7805C36.1088 12.9184 36.1321 13.0636 36.1321 13.2113V13.2996C36.1321 12.9748 35.8972 12.7805 35.7224 12.7805H28.1274C27.2003 12.7805 26.4486 12.0289 26.4486 11.1017V3.49043Z" fill="url(#paint38_linear_445_33878)"/>
<path d="M26.4486 3.49043C26.4486 3.20867 26.2275 3.09714 26.0742 3.06702C26.2199 3.0763 26.3623 3.10828 26.4964 3.16094C26.6688 3.22863 26.8276 3.33052 26.9625 3.46231C26.9665 3.46616 26.9704 3.47002 26.9743 3.47393L35.7224 12.2221C35.7491 12.2487 35.7745 12.2764 35.7988 12.3049C35.9182 12.4453 36.008 12.6071 36.0642 12.7805C36.1088 12.9184 36.1321 13.0636 36.1321 13.2113V13.2996C36.1321 12.9748 35.8972 12.7805 35.7224 12.7805H28.1274C27.2003 12.7805 26.4486 12.0289 26.4486 11.1017V3.49043Z" fill="url(#paint39_linear_445_33878)"/>
<path d="M26.4486 3.49043C26.4486 3.20867 26.2275 3.09714 26.0742 3.06702C26.2199 3.0763 26.3623 3.10828 26.4964 3.16094C26.6688 3.22863 26.8276 3.33052 26.9625 3.46231C26.9665 3.46616 26.9704 3.47002 26.9743 3.47393L35.7224 12.2221C35.7491 12.2487 35.7745 12.2764 35.7988 12.3049C35.9182 12.4453 36.008 12.6071 36.0642 12.7805C36.1088 12.9184 36.1321 13.0636 36.1321 13.2113V13.2996C36.1321 12.9748 35.8972 12.7805 35.7224 12.7805H28.1274C27.2003 12.7805 26.4486 12.0289 26.4486 11.1017V3.49043Z" fill="url(#paint40_linear_445_33878)"/>
<path d="M26.4486 3.49043C26.4486 3.20867 26.2275 3.09714 26.0742 3.06702C26.2199 3.0763 26.3623 3.10828 26.4964 3.16094C26.6688 3.22863 26.8276 3.33052 26.9625 3.46231C26.9665 3.46616 26.9704 3.47002 26.9743 3.47393L35.7224 12.2221C35.7491 12.2487 35.7745 12.2764 35.7988 12.3049C35.9182 12.4453 36.008 12.6071 36.0642 12.7805C36.1088 12.9184 36.1321 13.0636 36.1321 13.2113V13.2996C36.1321 12.9748 35.8972 12.7805 35.7224 12.7805H28.1274C27.2003 12.7805 26.4486 12.0289 26.4486 11.1017V3.49043Z" fill="url(#paint41_radial_445_33878)"/>
<path d="M26.4486 3.49043C26.4486 3.20867 26.2275 3.09714 26.0742 3.06702C26.2199 3.0763 26.3623 3.10828 26.4964 3.16094C26.6688 3.22863 26.8276 3.33052 26.9625 3.46231C26.9665 3.46616 26.9704 3.47002 26.9743 3.47393L35.7224 12.2221C35.7491 12.2487 35.7745 12.2764 35.7988 12.3049C35.9182 12.4453 36.008 12.6071 36.0642 12.7805C36.1088 12.9184 36.1321 13.0636 36.1321 13.2113V13.2996C36.1321 12.9748 35.8972 12.7805 35.7224 12.7805H28.1274C27.2003 12.7805 26.4486 12.0289 26.4486 11.1017V3.49043Z" fill="url(#paint42_radial_445_33878)"/>
<path d="M26.4486 3.49043C26.4486 3.20867 26.2275 3.09714 26.0742 3.06702C26.2199 3.0763 26.3623 3.10828 26.4964 3.16094C26.6688 3.22863 26.8276 3.33052 26.9625 3.46231C26.9665 3.46616 26.9704 3.47002 26.9743 3.47393L35.7224 12.2221C35.7491 12.2487 35.7745 12.2764 35.7988 12.3049C35.9182 12.4453 36.008 12.6071 36.0642 12.7805C36.1088 12.9184 36.1321 13.0636 36.1321 13.2113V13.2996C36.1321 12.9748 35.8972 12.7805 35.7224 12.7805H28.1274C27.2003 12.7805 26.4486 12.0289 26.4486 11.1017V3.49043Z" fill="url(#paint43_radial_445_33878)"/>
<path d="M26.4486 3.49043C26.4486 3.20867 26.2275 3.09714 26.0742 3.06702C26.2199 3.0763 26.3623 3.10828 26.4964 3.16094C26.6688 3.22863 26.8276 3.33052 26.9625 3.46231C26.9665 3.46616 26.9704 3.47002 26.9743 3.47393L35.7224 12.2221C35.7491 12.2487 35.7745 12.2764 35.7988 12.3049C35.9182 12.4453 36.008 12.6071 36.0642 12.7805C36.1088 12.9184 36.1321 13.0636 36.1321 13.2113V13.2996C36.1321 12.9748 35.8972 12.7805 35.7224 12.7805H28.1274C27.2003 12.7805 26.4486 12.0289 26.4486 11.1017V3.49043Z" fill="url(#paint44_radial_445_33878)"/>
<path d="M26.4486 3.49043C26.4486 3.20867 26.2275 3.09714 26.0742 3.06702C26.2199 3.0763 26.3623 3.10828 26.4964 3.16094C26.6688 3.22863 26.8276 3.33052 26.9625 3.46231C26.9665 3.46616 26.9704 3.47002 26.9743 3.47393L35.7224 12.2221C35.7491 12.2487 35.7745 12.2764 35.7988 12.3049C35.9182 12.4453 36.008 12.6071 36.0642 12.7805C36.1088 12.9184 36.1321 13.0636 36.1321 13.2113V13.2996C36.1321 12.9748 35.8972 12.7805 35.7224 12.7805H28.1274C27.2003 12.7805 26.4486 12.0289 26.4486 11.1017V3.49043Z" fill="url(#paint45_radial_445_33878)"/>
<path fill-rule="evenodd" clip-rule="evenodd" d="M11.5566 16.9883C11.2827 16.9883 11.0605 17.2105 11.0605 17.4844V17.8803C11.0605 18.1543 11.2827 18.3764 11.5566 18.3764H30.0298C30.3038 18.3764 30.5259 18.1543 30.5259 17.8803V17.4844C30.5259 17.2105 30.3038 16.9883 30.0298 16.9883H11.5566ZM11.5566 21.1852C11.2827 21.1852 11.0605 21.4073 11.0605 21.6813V22.0772C11.0605 22.3511 11.2827 22.5733 11.5566 22.5733H30.0298C30.3038 22.5733 30.5259 22.3511 30.5259 22.0772V21.6813C30.5259 21.4073 30.3038 21.1852 30.0298 21.1852H11.5566ZM11.0605 25.8783C11.0605 25.6043 11.2827 25.3822 11.5566 25.3822H30.0298C30.3038 25.3822 30.5259 25.6043 30.5259 25.8783V26.2741C30.5259 26.5481 30.3038 26.7702 30.0298 26.7702H11.5566C11.2827 26.7702 11.0605 26.5481 11.0605 26.2741V25.8783ZM11.5566 29.579C11.2827 29.579 11.0605 29.8011 11.0605 30.0751V30.471C11.0605 30.745 11.2827 30.9671 11.5566 30.9671H23.1333C23.4073 30.9671 23.6294 30.745 23.6294 30.471V30.0751C23.6294 29.8011 23.4073 29.579 23.1333 29.579H11.5566Z" fill="url(#paint46_linear_445_33878)"/>
<path d="M36.0926 19.091L33.6955 19.0927C33.4602 19.0927 33.2361 19.1973 33.0788 19.3805L31.5153 21.2016C31.3738 21.3664 31.3738 22.5956 31.5153 22.7604L33.0788 24.5815C33.2361 24.7646 33.4602 24.8692 33.6955 24.8692L36.0926 24.8675V19.091Z" fill="url(#paint47_radial_445_33878)" fill-opacity="0.75"/>
<path d="M36.0926 19.091L33.6955 19.0927C33.4602 19.0927 33.2361 19.1973 33.0788 19.3805L31.5153 21.2016C31.3738 21.3664 31.3738 22.5956 31.5153 22.7604L33.0788 24.5815C33.2361 24.7646 33.4602 24.8692 33.6955 24.8692L36.0926 24.8675V19.091Z" fill="url(#paint48_radial_445_33878)" fill-opacity="0.75"/>
<path d="M36.0926 19.091L33.6955 19.0927C33.4602 19.0927 33.2361 19.1973 33.0788 19.3805L31.5153 21.2016C31.3738 21.3664 31.3738 22.5956 31.5153 22.7604L33.0788 24.5815C33.2361 24.7646 33.4602 24.8692 33.6955 24.8692L36.0926 24.8675V19.091Z" fill="url(#paint49_radial_445_33878)" fill-opacity="0.75"/>
<path d="M36.0926 19.091L33.6955 19.0927C33.4602 19.0927 33.2361 19.1973 33.0788 19.3805L31.5153 21.2016C31.3738 21.3664 31.3738 22.5956 31.5153 22.7604L33.0788 24.5815C33.2361 24.7646 33.4602 24.8692 33.6955 24.8692L36.0926 24.8675V19.091Z" fill="url(#paint50_radial_445_33878)" fill-opacity="0.75"/>
<path d="M33.9462 19.9832C34.0885 19.8248 34.2913 19.7344 34.5042 19.7344H39.4549C39.662 19.7344 39.8299 19.9023 39.8299 20.1094V23.5078C39.8299 23.7149 39.662 23.8828 39.4549 23.8828H34.5042C34.2913 23.8828 34.0885 23.7924 33.9462 23.634L32.5316 22.0592C32.4035 21.9167 32.4035 21.7005 32.5316 21.558L33.9462 19.9832Z" fill="url(#paint51_linear_445_33878)"/>
<path d="M33.9462 19.9832C34.0885 19.8248 34.2913 19.7344 34.5042 19.7344H39.4549C39.662 19.7344 39.8299 19.9023 39.8299 20.1094V23.5078C39.8299 23.7149 39.662 23.8828 39.4549 23.8828H34.5042C34.2913 23.8828 34.0885 23.7924 33.9462 23.634L32.5316 22.0592C32.4035 21.9167 32.4035 21.7005 32.5316 21.558L33.9462 19.9832Z" fill="url(#paint52_linear_445_33878)"/>
<path d="M33.9462 19.9832C34.0885 19.8248 34.2913 19.7344 34.5042 19.7344H39.4549C39.662 19.7344 39.8299 19.9023 39.8299 20.1094V23.5078C39.8299 23.7149 39.662 23.8828 39.4549 23.8828H34.5042C34.2913 23.8828 34.0885 23.7924 33.9462 23.634L32.5316 22.0592C32.4035 21.9167 32.4035 21.7005 32.5316 21.558L33.9462 19.9832Z" fill="url(#paint53_linear_445_33878)" fill-opacity="0.74"/>
<path d="M33.9462 19.9832C34.0885 19.8248 34.2913 19.7344 34.5042 19.7344H39.4549C39.662 19.7344 39.8299 19.9023 39.8299 20.1094V23.5078C39.8299 23.7149 39.662 23.8828 39.4549 23.8828H34.5042C34.2913 23.8828 34.0885 23.7924 33.9462 23.634L32.5316 22.0592C32.4035 21.9167 32.4035 21.7005 32.5316 21.558L33.9462 19.9832Z" fill="url(#paint54_linear_445_33878)" fill-opacity="0.74"/>
<path d="M33.9462 19.9832C34.0885 19.8248 34.2913 19.7344 34.5042 19.7344H39.4549C39.662 19.7344 39.8299 19.9023 39.8299 20.1094V23.5078C39.8299 23.7149 39.662 23.8828 39.4549 23.8828H34.5042C34.2913 23.8828 34.0885 23.7924 33.9462 23.634L32.5316 22.0592C32.4035 21.9167 32.4035 21.7005 32.5316 21.558L33.9462 19.9832Z" fill="url(#paint55_linear_445_33878)" fill-opacity="0.74"/>
<path d="M33.9462 19.9832C34.0885 19.8248 34.2913 19.7344 34.5042 19.7344H39.4549C39.662 19.7344 39.8299 19.9023 39.8299 20.1094V23.5078C39.8299 23.7149 39.662 23.8828 39.4549 23.8828H34.5042C34.2913 23.8828 34.0885 23.7924 33.9462 23.634L32.5316 22.0592C32.4035 21.9167 32.4035 21.7005 32.5316 21.558L33.9462 19.9832Z" fill="url(#paint56_linear_445_33878)" fill-opacity="0.74"/>
<path d="M41.2966 29.3492L38.5342 29.351C38.263 29.351 38.0047 29.4556 37.8235 29.6387L36.0217 31.4598C35.8586 31.6246 35.8586 32.8538 36.0217 33.0186L37.8235 34.8397C38.0047 35.0228 38.263 35.1274 38.5342 35.1274L41.2966 35.1257V29.3492Z" fill="url(#paint57_radial_445_33878)"/>
<path d="M41.2966 29.3492L38.5342 29.351C38.263 29.351 38.0047 29.4556 37.8235 29.6387L36.0217 31.4598C35.8586 31.6246 35.8586 32.8538 36.0217 33.0186L37.8235 34.8397C38.0047 35.0228 38.263 35.1274 38.5342 35.1274L41.2966 35.1257V29.3492Z" fill="url(#paint58_radial_445_33878)"/>
<path d="M41.2966 29.3492L38.5342 29.351C38.263 29.351 38.0047 29.4556 37.8235 29.6387L36.0217 31.4598C35.8586 31.6246 35.8586 32.8538 36.0217 33.0186L37.8235 34.8397C38.0047 35.0228 38.263 35.1274 38.5342 35.1274L41.2966 35.1257V29.3492Z" fill="url(#paint59_radial_445_33878)"/>
<path d="M41.2966 29.3492L38.5342 29.351C38.263 29.351 38.0047 29.4556 37.8235 29.6387L36.0217 31.4598C35.8586 31.6246 35.8586 32.8538 36.0217 33.0186L37.8235 34.8397C38.0047 35.0228 38.263 35.1274 38.5342 35.1274L41.2966 35.1257V29.3492Z" fill="url(#paint60_radial_445_33878)"/>
<path d="M38.4228 30.4129C38.5651 30.2545 38.7679 30.1641 38.9807 30.1641H43.9315C44.1386 30.1641 44.3065 30.332 44.3065 30.5391V33.9375C44.3065 34.1446 44.1386 34.3125 43.9315 34.3125H38.9807C38.7679 34.3125 38.5651 34.2221 38.4228 34.0637L37.0081 32.4889C36.8801 32.3463 36.8801 32.1302 37.0081 31.9877L38.4228 30.4129Z" fill="url(#paint61_linear_445_33878)"/>
<path d="M38.4228 30.4129C38.5651 30.2545 38.7679 30.1641 38.9807 30.1641H43.9315C44.1386 30.1641 44.3065 30.332 44.3065 30.5391V33.9375C44.3065 34.1446 44.1386 34.3125 43.9315 34.3125H38.9807C38.7679 34.3125 38.5651 34.2221 38.4228 34.0637L37.0081 32.4889C36.8801 32.3463 36.8801 32.1302 37.0081 31.9877L38.4228 30.4129Z" fill="url(#paint62_linear_445_33878)"/>
<path d="M38.4228 30.4129C38.5651 30.2545 38.7679 30.1641 38.9807 30.1641H43.9315C44.1386 30.1641 44.3065 30.332 44.3065 30.5391V33.9375C44.3065 34.1446 44.1386 34.3125 43.9315 34.3125H38.9807C38.7679 34.3125 38.5651 34.2221 38.4228 34.0637L37.0081 32.4889C36.8801 32.3463 36.8801 32.1302 37.0081 31.9877L38.4228 30.4129Z" fill="url(#paint63_linear_445_33878)" fill-opacity="0.46"/>
<path d="M38.4228 30.4129C38.5651 30.2545 38.7679 30.1641 38.9807 30.1641H43.9315C44.1386 30.1641 44.3065 30.332 44.3065 30.5391V33.9375C44.3065 34.1446 44.1386 34.3125 43.9315 34.3125H38.9807C38.7679 34.3125 38.5651 34.2221 38.4228 34.0637L37.0081 32.4889C36.8801 32.3463 36.8801 32.1302 37.0081 31.9877L38.4228 30.4129Z" fill="url(#paint64_linear_445_33878)" fill-opacity="0.46"/>
<path d="M38.4228 30.4129C38.5651 30.2545 38.7679 30.1641 38.9807 30.1641H43.9315C44.1386 30.1641 44.3065 30.332 44.3065 30.5391V33.9375C44.3065 34.1446 44.1386 34.3125 43.9315 34.3125H38.9807C38.7679 34.3125 38.5651 34.2221 38.4228 34.0637L37.0081 32.4889C36.8801 32.3463 36.8801 32.1302 37.0081 31.9877L38.4228 30.4129Z" fill="url(#paint65_linear_445_33878)" fill-opacity="0.46"/>
<path d="M38.4228 30.4129C38.5651 30.2545 38.7679 30.1641 38.9807 30.1641H43.9315C44.1386 30.1641 44.3065 30.332 44.3065 30.5391V33.9375C44.3065 34.1446 44.1386 34.3125 43.9315 34.3125H38.9807C38.7679 34.3125 38.5651 34.2221 38.4228 34.0637L37.0081 32.4889C36.8801 32.3463 36.8801 32.1302 37.0081 31.9877L38.4228 30.4129Z" fill="url(#paint66_linear_445_33878)" fill-opacity="0.46"/>
<path d="M38.4228 30.4129C38.5651 30.2545 38.7679 30.1641 38.9807 30.1641H43.9315C44.1386 30.1641 44.3065 30.332 44.3065 30.5391V33.9375C44.3065 34.1446 44.1386 34.3125 43.9315 34.3125H38.9807C38.7679 34.3125 38.5651 34.2221 38.4228 34.0637L37.0081 32.4889C36.8801 32.3463 36.8801 32.1302 37.0081 31.9877L38.4228 30.4129Z" fill="url(#paint67_radial_445_33878)" fill-opacity="0.26"/>
<path d="M38.4228 30.4129C38.5651 30.2545 38.7679 30.1641 38.9807 30.1641H43.9315C44.1386 30.1641 44.3065 30.332 44.3065 30.5391V33.9375C44.3065 34.1446 44.1386 34.3125 43.9315 34.3125H38.9807C38.7679 34.3125 38.5651 34.2221 38.4228 34.0637L37.0081 32.4889C36.8801 32.3463 36.8801 32.1302 37.0081 31.9877L38.4228 30.4129Z" fill="url(#paint68_radial_445_33878)" fill-opacity="0.73"/>
<defs>
<linearGradient id="paint0_linear_445_33878" x1="31.2402" y1="36.375" x2="42.4902" y2="41.7188" gradientUnits="userSpaceOnUse">
<stop stop-color="#AFAAB6"/>
<stop offset="1" stop-color="#B7B0C0"/>
</linearGradient>
<linearGradient id="paint1_linear_445_33878" x1="13.1465" y1="45.4687" x2="31.8965" y2="33.5625" gradientUnits="userSpaceOnUse">
<stop stop-color="#A79FB2"/>
<stop offset="1" stop-color="#A79FB2" stop-opacity="0"/>
</linearGradient>
<linearGradient id="paint2_linear_445_33878" x1="41.4278" y1="24.5098" x2="40.9204" y2="24.5098" gradientUnits="userSpaceOnUse">
<stop stop-color="#CECCD3"/>
<stop offset="1" stop-color="#CFCCD3" stop-opacity="0"/>
</linearGradient>
<linearGradient id="paint3_linear_445_33878" x1="40.7872" y1="6.16406" x2="40.7872" y2="6.54373" gradientUnits="userSpaceOnUse">
<stop stop-color="#CFCCD3"/>
<stop offset="1" stop-color="#CFCCD3" stop-opacity="0"/>
</linearGradient>
<radialGradient id="paint4_radial_445_33878" cx="0" cy="0" r="1" gradientUnits="userSpaceOnUse" gradientTransform="translate(39.8453 6.16406) rotate(27.5945) scale(1.85548 0.34794)">
<stop stop-color="#CFCCD3"/>
<stop offset="1" stop-color="#CFCCD3" stop-opacity="0"/>
</radialGradient>
<radialGradient id="paint5_radial_445_33878" cx="0" cy="0" r="1" gradientUnits="userSpaceOnUse" gradientTransform="translate(40.3556 6.30529) rotate(45) scale(1.73749 0.65899)">
<stop stop-color="#CFCCD3"/>
<stop offset="1" stop-color="#CFCCD3" stop-opacity="0"/>
</radialGradient>
<radialGradient id="paint6_radial_445_33878" cx="0" cy="0" r="1" gradientUnits="userSpaceOnUse" gradientTransform="translate(41.1684 7.09915) rotate(80.2933) scale(1.45737 0.552747)">
<stop stop-color="#CFCCD3"/>
<stop offset="1" stop-color="#CFCCD3" stop-opacity="0"/>
</radialGradient>
<linearGradient id="paint7_linear_445_33878" x1="26.0664" y1="44.9764" x2="26.0664" y2="44.5302" gradientUnits="userSpaceOnUse">
<stop stop-color="#9887AC"/>
<stop offset="1" stop-color="#9887AC" stop-opacity="0"/>
</linearGradient>
<radialGradient id="paint8_radial_445_33878" cx="0" cy="0" r="1" gradientUnits="userSpaceOnUse" gradientTransform="translate(11.1065 45.2596) rotate(-3.80615) scale(2.49577 1.24654)">
<stop stop-color="#9887AC"/>
<stop offset="1" stop-color="#9887AC" stop-opacity="0"/>
</radialGradient>
<radialGradient id="paint9_radial_445_33878" cx="0" cy="0" r="1" gradientUnits="userSpaceOnUse" gradientTransform="translate(10.8379 41.9855) rotate(86.4477) scale(2.37787 0.398412)">
<stop stop-color="#9887AC"/>
<stop offset="1" stop-color="#9887AC" stop-opacity="0"/>
</radialGradient>
<radialGradient id="paint10_radial_445_33878" cx="0" cy="0" r="1" gradientUnits="userSpaceOnUse" gradientTransform="translate(10.8379 43.3194) rotate(54.7206) scale(1.99474 0.334219)">
<stop stop-color="#9887AC"/>
<stop offset="1" stop-color="#9887AC" stop-opacity="0"/>
</radialGradient>
<radialGradient id="paint11_radial_445_33878" cx="0" cy="0" r="1" gradientUnits="userSpaceOnUse" gradientTransform="translate(11.3663 44.1682) rotate(35.3112) scale(1.52849 0.256098)">
<stop stop-color="#9887AC"/>
<stop offset="1" stop-color="#9887AC" stop-opacity="0"/>
</radialGradient>
<radialGradient id="paint12_radial_445_33878" cx="0" cy="0" r="1" gradientUnits="userSpaceOnUse" gradientTransform="translate(38.9436 45.6591) rotate(-38.0944) scale(2.32056 0.633712)">
<stop stop-color="#9887AC"/>
<stop offset="1" stop-color="#9887AC" stop-opacity="0"/>
</radialGradient>
<radialGradient id="paint13_radial_445_33878" cx="0" cy="0" r="1" gradientUnits="userSpaceOnUse" gradientTransform="translate(40.5234 44.7204) rotate(-53.541) scale(1.85066 0.505389)">
<stop stop-color="#9887AC"/>
<stop offset="1" stop-color="#9887AC" stop-opacity="0"/>
</radialGradient>
<radialGradient id="paint14_radial_445_33878" cx="0" cy="0" r="1" gradientUnits="userSpaceOnUse" gradientTransform="translate(41.1396 44.0662) rotate(-75.8849) scale(1.67165 0.384067)">
<stop stop-color="#9887AC"/>
<stop offset="1" stop-color="#9887AC" stop-opacity="0"/>
</radialGradient>
<linearGradient id="paint15_linear_445_33878" x1="23.4373" y1="41.56" x2="23.4373" y2="43.6171" gradientUnits="userSpaceOnUse">
<stop stop-color="#91879F"/>
<stop offset="1" stop-color="#91879F" stop-opacity="0"/>
</linearGradient>
<radialGradient id="paint16_radial_445_33878" cx="0" cy="0" r="1" gradientUnits="userSpaceOnUse" gradientTransform="translate(16.5372 41.9678) rotate(0.137396) scale(20.0234 3.03589)">
<stop offset="0.0885417" stop-color="#B4ADBD" stop-opacity="0"/>
<stop offset="0.5625" stop-color="#B5ADBD" stop-opacity="0"/>
<stop offset="0.949543" stop-color="#B5AEBD"/>
</radialGradient>
<linearGradient id="paint17_linear_445_33878" x1="34.8284" y1="27.7322" x2="38.5915" y2="27.7322" gradientUnits="userSpaceOnUse">
<stop offset="0.229167" stop-color="#91879F"/>
<stop offset="0.526042" stop-color="#91879F" stop-opacity="0"/>
</linearGradient>
<linearGradient id="paint18_linear_445_33878" x1="32.8509" y1="52.4901" x2="26.346" y2="18.5446" gradientUnits="userSpaceOnUse">
<stop stop-color="#B6AFBF"/>
<stop offset="1" stop-color="#B6AFBE" stop-opacity="0"/>
</linearGradient>
<linearGradient id="paint19_linear_445_33878" x1="37.4262" y1="7.42517" x2="17.9413" y2="21.4426" gradientUnits="userSpaceOnUse">
<stop stop-color="#B0AAB7"/>
<stop offset="1" stop-color="#B6AFBE" stop-opacity="0"/>
</linearGradient>
<linearGradient id="paint20_linear_445_33878" x1="20.7989" y1="3.06445" x2="20.7989" y2="42.1154" gradientUnits="userSpaceOnUse">
<stop stop-color="#EBE4F3"/>
<stop offset="1" stop-color="#E4DAF0"/>
</linearGradient>
<linearGradient id="paint21_linear_445_33878" x1="20.7989" y1="3.24189" x2="20.7989" y2="3.56864" gradientUnits="userSpaceOnUse">
<stop stop-color="#F3F0F6"/>
<stop offset="1" stop-color="#F3F0F6" stop-opacity="0"/>
</linearGradient>
<linearGradient id="paint22_linear_445_33878" x1="36.1329" y1="21.6219" x2="35.6541" y2="21.6219" gradientUnits="userSpaceOnUse">
<stop stop-color="#F3F0F6"/>
<stop offset="1" stop-color="#F3F0F6" stop-opacity="0"/>
</linearGradient>
<linearGradient id="paint23_linear_445_33878" x1="36.4529" y1="21.6219" x2="35.8899" y2="21.6219" gradientUnits="userSpaceOnUse">
<stop stop-color="#B9A6CC"/>
<stop offset="1" stop-color="#B9A6CC" stop-opacity="0"/>
</linearGradient>
<linearGradient id="paint24_linear_445_33878" x1="4.31906" y1="21.6219" x2="5.71875" y2="21.6245" gradientUnits="userSpaceOnUse">
<stop stop-color="#B5B0BB"/>
<stop offset="1" stop-color="#B5B0BB" stop-opacity="0"/>
</linearGradient>
<linearGradient id="paint25_linear_445_33878" x1="22.924" y1="42.8594" x2="22.924" y2="41.8537" gradientUnits="userSpaceOnUse">
<stop stop-color="#B5B0BB"/>
<stop offset="1" stop-color="#B5B0BB" stop-opacity="0"/>
</linearGradient>
<radialGradient id="paint26_radial_445_33878" cx="0" cy="0" r="1" gradientUnits="userSpaceOnUse" gradientTransform="translate(6.27818 42.3735) rotate(-72.992) scale(0.726274 2.35741)">
<stop stop-color="#B5B0BB"/>
<stop offset="1" stop-color="#B5B0BB" stop-opacity="0"/>
</radialGradient>
<radialGradient id="paint27_radial_445_33878" cx="0" cy="0" r="1" gradientUnits="userSpaceOnUse" gradientTransform="translate(5.65721 41.8342) rotate(-60.2552) scale(0.658742 2.13821)">
<stop stop-color="#B5B0BB"/>
<stop offset="1" stop-color="#B5B0BB" stop-opacity="0"/>
</radialGradient>
<radialGradient id="paint28_radial_445_33878" cx="0" cy="0" r="1" gradientUnits="userSpaceOnUse" gradientTransform="translate(5.41209 41.1234) rotate(-38.6597) scale(0.470862 1.52837)">
<stop stop-color="#B5B0BB"/>
<stop offset="1" stop-color="#B5B0BB" stop-opacity="0"/>
</radialGradient>
<linearGradient id="paint29_linear_445_33878" x1="4.83395" y1="40.1815" x2="5.81142" y2="40.1815" gradientUnits="userSpaceOnUse">
<stop stop-color="#B5B0BB"/>
<stop offset="1" stop-color="#B5B0BB" stop-opacity="0"/>
</linearGradient>
<linearGradient id="paint30_linear_445_33878" x1="4.39164" y1="3.44058" x2="6.21759" y2="4.23382" gradientUnits="userSpaceOnUse">
<stop stop-color="#B5B0BB"/>
<stop offset="1" stop-color="#B5B0BB" stop-opacity="0"/>
</linearGradient>
<linearGradient id="paint31_linear_445_33878" x1="4.71428" y1="21.0862" x2="6.12686" y2="21.0862" gradientUnits="userSpaceOnUse">
<stop stop-color="#B9A6CC"/>
<stop offset="1" stop-color="#B9A6CC" stop-opacity="0"/>
</linearGradient>
<linearGradient id="paint32_linear_445_33878" x1="20.7989" y1="42.1154" x2="20.7989" y2="41.7831" gradientUnits="userSpaceOnUse">
<stop stop-color="#B9A6CC"/>
<stop offset="1" stop-color="#B9A6CC" stop-opacity="0"/>
</linearGradient>
<linearGradient id="paint33_linear_445_33878" x1="35.3625" y1="41.8746" x2="35.1602" y2="41.4979" gradientUnits="userSpaceOnUse">
<stop stop-color="#B9A6CC"/>
<stop offset="1" stop-color="#B9A6CC" stop-opacity="0"/>
</linearGradient>
<linearGradient id="paint34_linear_445_33878" x1="28.2193" y1="7.10884" x2="25.8179" y2="7.10884" gradientUnits="userSpaceOnUse">
<stop offset="0.72" stop-color="#D2C5DE"/>
<stop offset="1" stop-color="#D2C5DF" stop-opacity="0"/>
</linearGradient>
<linearGradient id="paint35_linear_445_33878" x1="31.6047" y1="15.9123" x2="31.5875" y2="12.7435" gradientUnits="userSpaceOnUse">
<stop offset="0.72" stop-color="#E9E1F3"/>
<stop offset="1" stop-color="#E9E1F3" stop-opacity="0"/>
</linearGradient>
<linearGradient id="paint36_linear_445_33878" x1="27.0712" y1="11.7644" x2="24.6985" y2="15.4823" gradientUnits="userSpaceOnUse">
<stop stop-color="#E9E1F3" stop-opacity="0"/>
<stop offset="0.682292" stop-color="#E9E1F3"/>
</linearGradient>
<linearGradient id="paint37_linear_445_33878" x1="27.1481" y1="12.387" x2="30.8423" y2="8.69285" gradientUnits="userSpaceOnUse">
<stop stop-color="#D9D3E1"/>
<stop offset="1" stop-color="#CCC7D1"/>
</linearGradient>
<linearGradient id="paint38_linear_445_33878" x1="31.6729" y1="7.9715" x2="30.7767" y2="8.84586" gradientUnits="userSpaceOnUse">
<stop offset="0.119171" stop-color="#DBDADC"/>
<stop offset="0.577307" stop-color="#CBC7D0" stop-opacity="0"/>
</linearGradient>
<linearGradient id="paint39_linear_445_33878" x1="26.4158" y1="6.84895" x2="26.6225" y2="6.84895" gradientUnits="userSpaceOnUse">
<stop stop-color="#A19CA7"/>
<stop offset="1" stop-color="#9D9CA7" stop-opacity="0"/>
</linearGradient>
<linearGradient id="paint40_linear_445_33878" x1="31.1032" y1="12.8461" x2="31.1032" y2="12.5619" gradientUnits="userSpaceOnUse">
<stop stop-color="#C0ACD5"/>
<stop offset="1" stop-color="#C0ACD5" stop-opacity="0"/>
</linearGradient>
<radialGradient id="paint41_radial_445_33878" cx="0" cy="0" r="1" gradientUnits="userSpaceOnUse" gradientTransform="translate(27.6316 12.9342) rotate(-81.1582) scale(0.517373 2.99599)">
<stop stop-color="#C0ACD5"/>
<stop offset="1" stop-color="#C0ACD5" stop-opacity="0"/>
</radialGradient>
<radialGradient id="paint42_radial_445_33878" cx="0" cy="0" r="1" gradientUnits="userSpaceOnUse" gradientTransform="translate(26.8477 12.548) rotate(-40.8602) scale(0.4781 2.76857)">
<stop stop-color="#A19CA7"/>
<stop offset="1" stop-color="#A19CA7" stop-opacity="0"/>
</radialGradient>
<radialGradient id="paint43_radial_445_33878" cx="0" cy="0" r="1" gradientUnits="userSpaceOnUse" gradientTransform="translate(26.4415 12.1035) rotate(-24.7752) scale(0.471149 2.72832)">
<stop stop-color="#A19CA7"/>
<stop offset="1" stop-color="#A19CA7" stop-opacity="0"/>
</radialGradient>
<radialGradient id="paint44_radial_445_33878" cx="0" cy="0" r="1" gradientUnits="userSpaceOnUse" gradientTransform="translate(26.167 11.6177) rotate(-6.45541) scale(0.590611 3.42009)">
<stop stop-color="#A19CA7"/>
<stop offset="1" stop-color="#A19CA7" stop-opacity="0"/>
</radialGradient>
<radialGradient id="paint45_radial_445_33878" cx="0" cy="0" r="1" gradientUnits="userSpaceOnUse" gradientTransform="translate(27.0467 12.6373) rotate(-59.8587) scale(0.385393 2.23172)">
<stop stop-color="#A19CA7"/>
<stop offset="1" stop-color="#A19CA7" stop-opacity="0"/>
</radialGradient>
<linearGradient id="paint46_linear_445_33878" x1="11.0605" y1="30.2731" x2="23.6294" y2="30.2731" gradientUnits="userSpaceOnUse">
<stop stop-color="#9C96A2"/>
<stop offset="1" stop-color="#9A95A1"/>
</linearGradient>
<radialGradient id="paint47_radial_445_33878" cx="0" cy="0" r="1" gradientUnits="userSpaceOnUse" gradientTransform="translate(33.9753 20.8426) rotate(-130.882) scale(1.17311 2.08405)">
<stop stop-color="#BAA8C1"/>
<stop offset="1" stop-color="#BAA8C1" stop-opacity="0"/>
</radialGradient>
<radialGradient id="paint48_radial_445_33878" cx="0" cy="0" r="1" gradientUnits="userSpaceOnUse" gradientTransform="translate(33.0619 21.7163) rotate(-138.18) scale(1.01251 1.79874)">
<stop stop-color="#BAA8C1"/>
<stop offset="1" stop-color="#BAA8C1" stop-opacity="0"/>
</radialGradient>
<radialGradient id="paint49_radial_445_33878" cx="0" cy="0" r="1" gradientUnits="userSpaceOnUse" gradientTransform="translate(33.5068 22.9553) rotate(43.3865) scale(1.89825 1.34022)">
<stop stop-color="#BAA8C1"/>
<stop offset="1" stop-color="#BAA8C1" stop-opacity="0"/>
</radialGradient>
<radialGradient id="paint50_radial_445_33878" cx="0" cy="0" r="1" gradientUnits="userSpaceOnUse" gradientTransform="translate(35.37 23.7239) scale(2.34046 0.92519)">
<stop offset="0.27157" stop-color="#BAA8C1"/>
<stop offset="1" stop-color="#BAA8C1" stop-opacity="0"/>
</radialGradient>
<linearGradient id="paint51_linear_445_33878" x1="36.1327" y1="19.7344" x2="36.1327" y2="23.8828" gradientUnits="userSpaceOnUse">
<stop stop-color="#E0437B"/>
<stop offset="1" stop-color="#DC4369"/>
</linearGradient>
<linearGradient id="paint52_linear_445_33878" x1="33.0447" y1="20.8594" x2="33.6307" y2="21.3281" gradientUnits="userSpaceOnUse">
<stop offset="0.263415" stop-color="#CA4A72"/>
<stop offset="1" stop-color="#CA4A72" stop-opacity="0"/>
</linearGradient>
<linearGradient id="paint53_linear_445_33878" x1="33.9447" y1="23.1634" x2="34.238" y2="22.8702" gradientUnits="userSpaceOnUse">
<stop stop-color="#B83960"/>
<stop offset="1" stop-color="#B83960" stop-opacity="0"/>
</linearGradient>
<linearGradient id="paint54_linear_445_33878" x1="37.6721" y1="23.6093" x2="37.6721" y2="23.3775" gradientUnits="userSpaceOnUse">
<stop stop-color="#B83960"/>
<stop offset="1" stop-color="#B83960" stop-opacity="0"/>
</linearGradient>
<linearGradient id="paint55_linear_445_33878" x1="36.1327" y1="19.6041" x2="36.1327" y2="20.5553" gradientUnits="userSpaceOnUse">
<stop stop-color="#EC6693"/>
<stop offset="1" stop-color="#EC6693" stop-opacity="0"/>
</linearGradient>
<linearGradient id="paint56_linear_445_33878" x1="39.8299" y1="20.5553" x2="38.9697" y2="20.5553" gradientUnits="userSpaceOnUse">
<stop stop-color="#EC6693"/>
<stop offset="1" stop-color="#EC6693" stop-opacity="0"/>
</linearGradient>
<radialGradient id="paint57_radial_445_33878" cx="0" cy="0" r="1" gradientUnits="userSpaceOnUse" gradientTransform="translate(38.8567 31.1007) rotate(-134.931) scale(1.25282 2.24885)">
<stop stop-color="#91879F"/>
<stop offset="1" stop-color="#91879F" stop-opacity="0"/>
</radialGradient>
<radialGradient id="paint58_radial_445_33878" cx="0" cy="0" r="1" gradientUnits="userSpaceOnUse" gradientTransform="translate(37.804 31.9744) rotate(-142.174) scale(1.10088 1.90647)">
<stop stop-color="#91879F"/>
<stop offset="1" stop-color="#91879F" stop-opacity="0"/>
</radialGradient>
<radialGradient id="paint59_radial_445_33878" cx="0" cy="0" r="1" gradientUnits="userSpaceOnUse" gradientTransform="translate(38.3167 33.2135) rotate(39.3589) scale(2.05612 1.42588)">
<stop stop-color="#91879F"/>
<stop offset="1" stop-color="#91879F" stop-opacity="0"/>
</radialGradient>
<radialGradient id="paint60_radial_445_33878" cx="0" cy="0" r="1" gradientUnits="userSpaceOnUse" gradientTransform="translate(40.4638 33.9821) scale(2.69715 0.92519)">
<stop offset="0.27157" stop-color="#91879F"/>
<stop offset="1" stop-color="#91879F" stop-opacity="0"/>
</radialGradient>
<linearGradient id="paint61_linear_445_33878" x1="40.6093" y1="30.1641" x2="40.6093" y2="34.3125" gradientUnits="userSpaceOnUse">
<stop stop-color="#E4BD58"/>
<stop offset="1" stop-color="#D89D52"/>
</linearGradient>
<linearGradient id="paint62_linear_445_33878" x1="37.5213" y1="31.2891" x2="38.2479" y2="31.8281" gradientUnits="userSpaceOnUse">
<stop offset="0.263415" stop-color="#AB9365"/>
<stop offset="1" stop-color="#E3B758" stop-opacity="0"/>
</linearGradient>
<linearGradient id="paint63_linear_445_33878" x1="38.2627" y1="33.4259" x2="38.6304" y2="33.0582" gradientUnits="userSpaceOnUse">
<stop stop-color="#A56947"/>
<stop offset="1" stop-color="#A56747" stop-opacity="0"/>
</linearGradient>
<linearGradient id="paint64_linear_445_33878" x1="41.7533" y1="34.0687" x2="41.7533" y2="33.6507" gradientUnits="userSpaceOnUse">
<stop stop-color="#A56947"/>
<stop offset="1" stop-color="#A56747" stop-opacity="0"/>
</linearGradient>
<linearGradient id="paint65_linear_445_33878" x1="41.7533" y1="30.4" x2="41.7533" y2="30.807" gradientUnits="userSpaceOnUse">
<stop stop-color="#FCED70"/>
<stop offset="1" stop-color="#FCED70" stop-opacity="0"/>
</linearGradient>
<linearGradient id="paint66_linear_445_33878" x1="44.3065" y1="30.807" x2="43.6215" y2="30.807" gradientUnits="userSpaceOnUse">
<stop stop-color="#FCED70"/>
<stop offset="1" stop-color="#FCED70" stop-opacity="0"/>
</linearGradient>
<radialGradient id="paint67_radial_445_33878" cx="0" cy="0" r="1" gradientUnits="userSpaceOnUse" gradientTransform="translate(39.3499 34.5014) rotate(-67.5431) scale(0.823723 1.46824)">
<stop stop-color="#A56947"/>
<stop offset="1" stop-color="#A56747" stop-opacity="0"/>
</radialGradient>
<radialGradient id="paint68_radial_445_33878" cx="0" cy="0" r="1" gradientUnits="userSpaceOnUse" gradientTransform="translate(43.7972 34.9239) rotate(-45) scale(2.31379 1.27731)">
<stop stop-color="#A56947"/>
<stop offset="0.98754" stop-color="#A56747" stop-opacity="0"/>
</radialGradient>
</defs>
</svg>
