<svg width="16" height="13" viewBox="0 0 16 13" fill="none" xmlns="http://www.w3.org/2000/svg">
    <path fill-rule="evenodd" clip-rule="evenodd"
        d="M7.34531 1.63381C7.43525 1.67994 7.52439 1.72822 7.61265 1.77865L8 1.99999L8.38735 1.77865C8.47561 1.72822 8.56475 1.67994 8.65469 1.63381C10.5465 0.663668 12.7942 0.647084 14.7065 1.60325C15.1928 1.8464 15.5 2.34343 15.5 2.88713V11.8254C15.5 12.4741 14.9741 13 14.3254 13H14.2845C14.0983 13 13.9157 12.9494 13.7561 12.8536C12.3509 12.0105 10.6124 11.9438 9.14676 12.6766L8.94721 12.7764C8.88283 12.8086 8.81701 12.8374 8.75 12.8628C8.51091 12.9533 8.25683 13 8 13H7.88327C7.66535 13 7.45002 12.9561 7.25 12.8714C7.21867 12.8581 7.18772 12.8439 7.15719 12.8286L6.9242 12.7121C5.41433 11.9572 3.62342 12.0259 2.1759 12.8945C2.0608 12.9635 1.92909 13 1.79486 13H1.67464C1.02591 13 0.5 12.4741 0.5 11.8254V2.88713C0.5 2.34343 0.807183 1.8464 1.29348 1.60325C3.20582 0.647084 5.45355 0.663668 7.34531 1.63381ZM8.75 11.2061V3.29905L9.13156 3.08102C10.6292 2.22523 12.4529 2.16838 14 2.92721V11.2839C12.35 10.4964 10.4315 10.4639 8.75 11.2061ZM7.25 11.2105V3.29905L6.86844 3.08101C5.37082 2.22523 3.54709 2.16838 2 2.92721V11.2919C3.65407 10.5218 5.56451 10.4885 7.25 11.2105Z"
        fill="inherit" />
</svg>