<svg width="20" height="14" viewBox="0 0 20 14" fill="none" xmlns="http://www.w3.org/2000/svg">
    <path fill-rule="evenodd" clip-rule="evenodd"
        d="M15.625 2H4.375C3.33947 2 2.5 2.83947 2.5 3.875L17.5 3.875C17.5 2.83947 16.6605 2 15.625 2ZM2.5 10.125V5.75H17.5V10.125C17.5 11.1605 16.6605 12 15.625 12H4.375C3.33947 12 2.5 11.1605 2.5 10.125ZM4.375 0.125C2.30393 0.125 0.625 1.80393 0.625 3.875V10.125C0.625 12.1961 2.30393 13.875 4.375 13.875H15.625C17.6961 13.875 19.375 12.1961 19.375 10.125V3.875C19.375 1.80393 17.6961 0.125 15.625 0.125H4.375ZM5.3125 8.25C4.79473 8.25 4.375 8.66973 4.375 9.1875C4.375 9.70527 4.79473 10.125 5.3125 10.125H8.4375C8.95527 10.125 9.375 9.70527 9.375 9.1875C9.375 8.66973 8.95527 8.25 8.4375 8.25H5.3125Z"
        fill="inherit" />
</svg>