<svg width="16" height="16" viewBox="0 0 16 16" fill="none" xmlns="http://www.w3.org/2000/svg">
    <path fill-rule="evenodd" clip-rule="evenodd"
        d="M6.70225 3.01343L8 3.50009V2.38609C8 0.989675 9.39474 0.0231153 10.7022 0.513428L14.0534 1.7701C15.2243 2.20919 16 3.32855 16 4.57909V8.61409C16 10.0105 14.6053 10.9771 13.2978 10.4867L12 10.0001V11.1141C12 12.5105 10.6053 13.4771 9.29775 12.9867L8 12.5001V13.6141C8 15.0105 6.60526 15.9771 5.29775 15.4868L1.94663 14.2301C0.775719 13.791 0 12.6717 0 11.4211V7.38612C0 5.98971 1.39474 5.02315 2.70225 5.51346L4 6.00012V4.88609C4 3.48967 5.39474 2.52312 6.70225 3.01343ZM5.5 6.56262L6.05337 6.77014C7.22428 7.20923 8 8.32859 8 9.57912V10.8981L9.82444 11.5823C10.1513 11.7048 10.5 11.4632 10.5 11.1141V7.07909C10.5 6.45382 10.1121 5.89414 9.52669 5.67459L6.17556 4.41792C5.84869 4.29534 5.5 4.53698 5.5 4.88609V6.56262ZM10.0534 4.2701L9.5 4.06259V2.38609C9.5 2.03698 9.84869 1.79534 10.1756 1.91792L13.5267 3.17459C14.1121 3.39414 14.5 3.95382 14.5 4.57909V8.61409C14.5 8.96319 14.1513 9.20483 13.8244 9.08225L12 8.39809V7.07909C12 5.82855 11.2243 4.70919 10.0534 4.2701ZM1.5 11.4211V7.38612C1.5 7.03702 1.84869 6.79538 2.17556 6.91796L5.52669 8.17463C6.11214 8.39418 6.5 8.95386 6.5 9.57912V13.6141C6.5 13.9632 6.15131 14.2049 5.82444 14.0823L2.47332 12.8256C1.88786 12.6061 1.5 12.0464 1.5 11.4211Z"
        fill="inherit" />
</svg>