<svg width="22" height="21" viewBox="0 0 22 21" fill="none" xmlns="http://www.w3.org/2000/svg">
    <path fill-rule="evenodd" clip-rule="evenodd"
        d="M19.25 10.5C19.25 15.0563 15.5563 18.75 11 18.75C6.44365 18.75 2.75 15.0563 2.75 10.5C2.75 5.94365 6.44365 2.25 11 2.25C15.5563 2.25 19.25 5.94365 19.25 10.5ZM21.5 10.5C21.5 16.299 16.799 21 11 21C5.20101 21 0.5 16.299 0.5 10.5C0.5 4.70101 5.20101 0 11 0C16.799 0 21.5 4.70101 21.5 10.5ZM12.125 5.25C12.125 4.62868 11.6213 4.125 11 4.125C10.3787 4.125 9.875 4.62868 9.875 5.25V10.5C9.875 10.8541 10.0417 11.1875 10.325 11.4L13.325 13.65C13.8221 14.0228 14.5272 13.9221 14.9 13.425C15.2728 12.9279 15.1721 12.2228 14.675 11.85L12.125 9.9375V5.25Z"
        fill="inherit" />
</svg>