<svg width="24" height="24" viewBox="0 0 24 24" fill="none" xmlns="http://www.w3.org/2000/svg">
    <path fill-rule="evenodd" clip-rule="evenodd"
        d="M20.25 12C20.25 16.5563 16.5563 20.25 12 20.25C7.44365 20.25 3.75 16.5563 3.75 12C3.75 7.44365 7.44365 3.75 12 3.75C16.5563 3.75 20.25 7.44365 20.25 12ZM22.5 12C22.5 17.799 17.799 22.5 12 22.5C6.20101 22.5 1.5 17.799 1.5 12C1.5 6.20101 6.20101 1.5 12 1.5C17.799 1.5 22.5 6.20101 22.5 12ZM13.125 6.375C13.125 5.75368 12.6213 5.25 12 5.25C11.3787 5.25 10.875 5.75368 10.875 6.375V6.88312C10.3025 7.0147 9.78973 7.248 9.3643 7.58967C8.63796 8.17301 8.25514 9.00557 8.25514 9.90685C8.25514 11.0533 8.96549 11.8049 9.66509 12.2456C10.3491 12.6764 11.1743 12.9187 11.8367 13.0658C12.5294 13.2196 13.1016 13.3532 13.5141 13.5786C13.8556 13.7652 13.926 13.9138 13.9259 14.1416C13.9259 14.2952 13.8647 14.467 13.5534 14.6541C13.2176 14.8559 12.689 14.9964 12.0806 14.9964C11.5647 14.9964 11.0572 14.8256 10.6522 14.5614C10.2298 14.2859 10.0225 13.9802 9.96664 13.8033C9.77966 13.2107 9.14774 12.882 8.55523 13.069C7.96271 13.256 7.63397 13.8879 7.82095 14.4804C8.07822 15.2956 8.70811 15.9797 9.42284 16.4459C9.84866 16.7237 10.3413 16.9492 10.875 17.0892V17.625C10.875 18.2463 11.3787 18.75 12 18.75C12.6213 18.75 13.125 18.2463 13.125 17.625V17.1554C13.6875 17.0553 14.2353 16.8693 14.7123 16.5827C15.5079 16.1046 16.1757 15.2866 16.1759 14.142C16.1762 12.8455 15.4117 12.0514 14.593 11.6041C13.8769 11.2129 13.009 11.0208 12.403 10.8867L12.403 10.8867L12.3245 10.8693C11.7449 10.7406 11.2198 10.5657 10.8641 10.3417C10.524 10.1275 10.5051 9.98666 10.5051 9.90685C10.5051 9.67233 10.5904 9.49076 10.7732 9.34394C10.9757 9.18129 11.3784 9.00361 12.0806 9.00361C12.7832 9.00361 13.1922 9.16706 13.4303 9.32937C13.668 9.49144 13.8151 9.70663 13.9037 9.94623C14.1193 10.529 14.7664 10.8266 15.3491 10.6111C15.9319 10.3956 16.2296 9.74845 16.014 9.16571C15.7895 8.55875 15.3797 7.93526 14.6977 7.47029C14.2543 7.16802 13.7297 6.95577 13.125 6.84431V6.375Z"
        fill="inherit" />
</svg>