<svg width="32" height="32" viewBox="0 0 32 32" fill="none" xmlns="http://www.w3.org/2000/svg">
<rect width="32" height="32" rx="16" fill="#F2F2F2"/>
<path fill-rule="evenodd" clip-rule="evenodd" d="M18 12.5C18 13.6046 17.1046 14.5 16 14.5C14.8954 14.5 14 13.6046 14 12.5C14 11.3954 14.8954 10.5 16 10.5C17.1046 10.5 18 11.3954 18 12.5ZM19.5 12.5C19.5 14.433 17.933 16 16 16C14.067 16 12.5 14.433 12.5 12.5C12.5 10.567 14.067 9 16 9C17.933 9 19.5 10.567 19.5 12.5ZM10.5 20.5C10.5 20.2955 10.7203 19.6911 11.8196 19.0413C12.8375 18.4395 14.3198 18 16 18C17.6802 18 19.1625 18.4395 20.1804 19.0413C21.2797 19.6911 21.5 20.2955 21.5 20.5C21.5 21.0523 21.0523 21.5 20.5 21.5H11.5C10.9477 21.5 10.5 21.0523 10.5 20.5ZM16 16.5C12.15 16.5 9 18.5 9 20.5C9 21.8807 10.1193 23 11.5 23H20.5C21.8807 23 23 21.8807 23 20.5C23 18.5 19.85 16.5 16 16.5Z" fill="black" fill-opacity="0.5"/>
</svg>
