<svg width="24" height="19" viewBox="0 0 24 19" fill="none" xmlns="http://www.w3.org/2000/svg">
    <path fill-rule="evenodd" clip-rule="evenodd"
        d="M8.25 7C9.49264 7 10.5 5.99264 10.5 4.75C10.5 3.50736 9.49264 2.5 8.25 2.5C7.00736 2.5 6 3.50736 6 4.75C6 5.99264 7.00736 7 8.25 7ZM8.25 9.25C10.7353 9.25 12.75 7.23528 12.75 4.75C12.75 2.26472 10.7353 0.25 8.25 0.25C5.76472 0.25 3.75 2.26472 3.75 4.75C3.75 7.23528 5.76472 9.25 8.25 9.25ZM3.70687 13.5788C2.54135 14.3882 2.25 15.1727 2.25 15.5385C2.25 16.2076 2.79242 16.75 3.46154 16.75H13.0385C13.7076 16.75 14.25 16.2076 14.25 15.5385C14.25 15.1727 13.9586 14.3882 12.7931 13.5788C11.6887 12.8118 10.0774 12.25 8.25 12.25C6.42257 12.25 4.81126 12.8118 3.70687 13.5788ZM0 15.5385C0 12.7692 3.7125 10 8.25 10C10.0213 10 11.6669 10.422 13.015 11.1013C14.1752 10.4287 15.6499 10 17.25 10C20.9625 10 24 12.3077 24 14.6154C24 16.2085 22.7085 17.5 21.1154 17.5H15.891C15.2667 18.4061 14.222 19 13.0385 19H3.46154C1.54978 19 0 17.4502 0 15.5385ZM16.4867 15.25H21.1154C21.4659 15.25 21.75 14.9659 21.75 14.6154C21.75 14.4615 21.6058 13.9073 20.7179 13.2792C19.8862 12.691 18.6555 12.25 17.25 12.25C16.4743 12.25 15.7518 12.3843 15.1203 12.6036C15.9095 13.4052 16.4013 14.3222 16.4867 15.25ZM18.75 5.5C18.75 6.32842 18.0784 7 17.25 7C16.4216 7 15.75 6.32842 15.75 5.5C15.75 4.67157 16.4216 4 17.25 4C18.0784 4 18.75 4.67157 18.75 5.5ZM21 5.5C21 7.57107 19.3211 9.25 17.25 9.25C15.1789 9.25 13.5 7.57107 13.5 5.5C13.5 3.42893 15.1789 1.75 17.25 1.75C19.3211 1.75 21 3.42893 21 5.5Z"
        fill="inherit" />
</svg>