<svg width="14" height="14" viewBox="0 0 14 14" fill="none" xmlns="http://www.w3.org/2000/svg">
    <path fill-rule="evenodd" clip-rule="evenodd"
        d="M13.7803 6.46967C14.0732 6.76256 14.0732 7.23744 13.7803 7.53033L11.2803 10.0303C10.9874 10.3232 10.5126 10.3232 10.2197 10.0303C9.92678 9.73744 9.92678 9.26256 10.2197 8.96967L11.4393 7.75L3.75 7.75C3.33579 7.75 3 7.41421 3 7C3 6.58579 3.33579 6.25 3.75 6.25L11.4393 6.25L10.2197 5.03033C9.92678 4.73744 9.92678 4.26256 10.2197 3.96967C10.5126 3.67678 10.9874 3.67678 11.2803 3.96967L13.7803 6.46967ZM8.5 3.25C8.5 3.66421 8.16421 4 7.75 4C7.33579 4 7 3.66421 7 3.25L7 3C7 2.17157 6.32843 1.5 5.5 1.5L3 1.5C2.17157 1.5 1.5 2.17157 1.5 3L1.5 11C1.5 11.8284 2.17157 12.5 3 12.5L5.5 12.5C6.32843 12.5 7 11.8284 7 11L7 10.75C7 10.3358 7.33579 10 7.75 10C8.16421 10 8.5 10.3358 8.5 10.75L8.5 11C8.5 12.6569 7.15685 14 5.5 14L3 14C1.34315 14 -5.53249e-07 12.6569 -4.80825e-07 11L8.2254e-07 3C8.94964e-07 1.34315 1.34315 -5.53249e-07 3 -4.80825e-07L5.5 -3.71547e-07C7.15685 -2.99123e-07 8.5 1.34315 8.5 3L8.5 3.25Z"
        fill="inherit" />
</svg>