<svg width="16" height="18" viewBox="0 0 16 18" fill="none" xmlns="http://www.w3.org/2000/svg">
    <path fill-rule="evenodd" clip-rule="evenodd"
        d="M11.75 15.875H4.25C3.21447 15.875 2.375 15.0355 2.375 14L2.375 4C2.375 2.96447 3.21447 2.125 4.25 2.125L6.75 2.125V5.25C6.75 7.32107 8.42893 9 10.5 9H13.625V14C13.625 15.0355 12.7855 15.875 11.75 15.875ZM13.3791 7.125C13.2969 6.98078 13.1953 6.8469 13.0758 6.72747L9.02252 2.67417C8.9031 2.55475 8.76922 2.4531 8.625 2.37092V5.25C8.625 6.28553 9.46447 7.125 10.5 7.125H13.3791ZM14.4016 5.40165C15.1049 6.10491 15.5 7.05874 15.5 8.0533L15.5 14C15.5 16.0711 13.8211 17.75 11.75 17.75H4.25C2.17893 17.75 0.5 16.0711 0.5 14V4C0.5 1.92893 2.17893 0.25 4.25 0.25H7.6967C8.69126 0.25 9.64509 0.645088 10.3484 1.34835L14.4016 5.40165Z"
        fill="inherit" />
</svg>