<svg width="26" height="16" viewBox="0 0 26 16" fill="none" xmlns="http://www.w3.org/2000/svg">
<path d="M19.9877 3.43298C19.9772 2.6063 19.7163 1.77444 18.9732 1.31C18.25 0.858497 17.2882 0.867553 16.7191 1.55451C16.673 1.61014 16.5741 1.70458 16.6031 1.78609C16.6321 1.86759 16.8113 1.84819 16.8864 1.8857C17.0155 1.9491 17.0669 2.07588 17.0629 2.21172C17.0577 2.36955 17.0563 3.87672 17.0497 5.95442C15.1882 5.94408 13.3253 5.93243 11.4637 5.92208C11.4281 5.46799 11.4149 4.95827 11.4479 4.40456C11.4782 3.89354 11.5454 3.38511 11.6468 2.88315C11.6916 2.66322 11.743 2.44459 11.801 2.22854C11.8642 1.99049 12.0394 1.69812 12.021 1.44843C12.0183 1.41479 12.0104 1.38116 11.9894 1.35528C11.9393 1.29448 11.8431 1.30483 11.7667 1.32423C11.2924 1.44325 10.8313 1.69165 10.4677 2.01378C10.3557 2.1121 10.0566 2.39154 9.78656 2.86763C9.06985 4.1277 9.0132 5.91303 9.0132 5.91303C8.97631 7.06702 8.9302 9.40604 10.1831 11.8343C10.1831 11.8343 11.0605 13.5369 12.3161 13.956C12.5638 14.0388 12.631 13.9845 12.652 13.956C12.7495 13.8331 12.5401 13.621 12.4781 13.5265C12.3635 13.3532 12.266 13.1695 12.1817 12.9793C12.0078 12.5873 11.8919 12.172 11.8062 11.7541C11.5441 10.4811 11.3741 9.19258 11.411 7.8924H17.0497V12.7788C17.0497 13.1022 17.1841 13.414 17.4885 13.5666C17.6716 13.6585 17.8798 13.6908 18.084 13.7154C18.441 13.7594 18.8059 13.7827 19.159 13.7154C19.3659 13.6766 19.5727 13.6028 19.7268 13.4618C19.9758 13.2354 19.9798 12.9275 19.9798 12.6183C19.9798 10.1642 20.0035 7.70999 19.9996 5.25582C19.9996 4.64648 19.9943 4.03844 19.9877 3.4291V3.43298Z" fill="url(#paint0_linear_1219_37979)"/>
<path d="M12.7784 14.3179C10.3437 13.6849 9.39352 11.3912 8.87331 9.40211C8.76052 8.96844 8.65197 8.54103 8.58712 8.09858C8.39257 6.76122 8.40103 5.29099 8.88881 4C8.51663 4.07395 8.34886 4.35847 8.13175 4.58909C7.33804 5.43137 7.27601 6.41528 7.23795 7.39293C7.14772 9.68914 8.09087 11.3223 8.30093 11.6733C8.77462 12.4616 9.2906 12.9805 9.44286 13.1297C9.98422 13.6624 10.5284 14.0321 10.9457 14.2778C10.6144 14.2051 10.1463 14.0685 9.64587 13.794C9.18205 13.5395 8.85075 13.2563 8.63364 13.0394C8.31926 12.6822 8.09792 12.3676 7.95412 12.1445C7.56643 11.5479 7.08428 10.8047 6.83897 9.80821C6.7699 9.5287 6.72337 9.24418 6.59931 9.2329C6.42027 9.21661 6.21867 9.78314 6.17496 9.90472C6.03398 10.302 5.99733 10.6655 6.00015 10.8585C6.01002 11.6106 6.64442 13.0733 8.15995 14.066C8.15995 14.066 9.48516 14.9333 11.7521 14.9997C11.8451 15.0023 12.3936 14.991 12.801 14.7315C13.0012 14.6037 13.1337 14.4081 12.7784 14.3167V14.3179Z" fill="url(#paint1_linear_1219_37979)"/>
<path d="M8.07312 3.26367C8.07312 3.26367 8.07172 3.26947 8.07031 3.27237C8.07312 3.27237 8.07593 3.27092 8.07874 3.26947L8.07312 3.26367Z" fill="url(#paint2_linear_1219_37979)"/>
<path d="M8.07214 3.26332L8.07963 3.26912L8.10959 3.22852L8.07214 3.26332Z" fill="url(#paint3_linear_1219_37979)"/>
<defs>
<linearGradient id="paint0_linear_1219_37979" x1="17.2882" y1="8.9222" x2="8.37725" y2="2.05437" gradientUnits="userSpaceOnUse">
<stop offset="0.33" stop-color="#9C8837"/>
<stop offset="0.56" stop-color="#F7E59E"/>
<stop offset="0.6" stop-color="#F0DE96"/>
<stop offset="0.67" stop-color="#DECB80"/>
<stop offset="0.75" stop-color="#C0AC5D"/>
<stop offset="0.79" stop-color="#B39F4D"/>
</linearGradient>
<linearGradient id="paint1_linear_1219_37979" x1="14.5477" y1="13.0858" x2="5.73582" y2="5.58496" gradientUnits="userSpaceOnUse">
<stop offset="0.33" stop-color="#9C8837"/>
<stop offset="0.56" stop-color="#F7E59E"/>
<stop offset="0.6" stop-color="#F0DE96"/>
<stop offset="0.67" stop-color="#DECB80"/>
<stop offset="0.75" stop-color="#C0AC5D"/>
<stop offset="0.79" stop-color="#B39F4D"/>
</linearGradient>
<linearGradient id="paint2_linear_1219_37979" x1="16.5546" y1="9.89765" x2="6.70553" y2="2.67927" gradientUnits="userSpaceOnUse">
<stop offset="0.33" stop-color="#9C8837"/>
<stop offset="0.56" stop-color="#F7E59E"/>
<stop offset="0.6" stop-color="#F0DE96"/>
<stop offset="0.67" stop-color="#DECB80"/>
<stop offset="0.75" stop-color="#C0AC5D"/>
<stop offset="0.79" stop-color="#B39F4D"/>
</linearGradient>
<linearGradient id="paint3_linear_1219_37979" x1="17.1371" y1="9.87413" x2="7.11539" y2="2.03989" gradientUnits="userSpaceOnUse">
<stop offset="0.33" stop-color="#9C8837"/>
<stop offset="0.56" stop-color="#F7E59E"/>
<stop offset="0.6" stop-color="#F0DE96"/>
<stop offset="0.67" stop-color="#DECB80"/>
<stop offset="0.75" stop-color="#C0AC5D"/>
<stop offset="0.79" stop-color="#B39F4D"/>
</linearGradient>
</defs>
</svg>
