<svg width="13" height="14" viewBox="0 0 13 14" fill="none" xmlns="http://www.w3.org/2000/svg">
    <path fill-rule="evenodd" clip-rule="evenodd"
        d="M10 2H3.00005C2.17162 2 1.50005 2.67157 1.50005 3.5V8.52717L2.46161 7.82786C3.08293 7.37599 3.9263 7.38219 4.54091 7.84314L5.46874 8.53902L7.83653 6.50948C8.51048 5.93181 9.51016 5.95021 10.1624 6.55228L11.5 7.78701V3.5C11.5 2.67157 10.8285 2 10 2ZM13 9.49781V3.5C13 1.84315 11.6569 0.5 10 0.5H3.00005C1.3432 0.5 5.29014e-05 1.84315 5.29014e-05 3.5V9.99169C-1.75988e-05 9.99764 -1.76687e-05 10.0036 5.29014e-05 10.0095V10.5C5.29014e-05 12.1569 1.3432 13.5 3.00005 13.5H10C11.6569 13.5 13 12.1569 13 10.5V9.50257V9.49781ZM11.5 9.82837L9.14498 7.65448C9.05181 7.56847 8.90899 7.56584 8.81272 7.64837L5.98814 10.0694L5.53135 10.461L5.05005 10.1L3.64091 9.04315C3.55311 8.97729 3.43262 8.97641 3.34386 9.04096L1.50005 10.3819V10.5C1.50005 11.3284 2.17162 12 3.00005 12H10C10.8285 12 11.5 11.3284 11.5 10.5V9.82837ZM6.00004 5C6.00004 5.82843 5.32847 6.5 4.50005 6.5C3.67162 6.5 3.00005 5.82843 3.00005 5C3.00005 4.17157 3.67162 3.5 4.50005 3.5C5.32847 3.5 6.00004 4.17157 6.00004 5Z"
        fill="inherit" />
</svg>