<svg width="14" height="14" viewBox="0 0 14 14" fill="none" xmlns="http://www.w3.org/2000/svg">
    <path fill-rule="evenodd" clip-rule="evenodd"
        d="M9.5 5V4C9.5 2.61929 8.38071 1.5 7 1.5C5.61929 1.5 4.5 2.61929 4.5 4V5H9.5ZM3 4V5C1.34315 5 0 6.34315 0 8V11C0 12.6569 1.34315 14 3 14H11C12.6569 14 14 12.6569 14 11V8C14 6.34315 12.6569 5 11 5V4C11 1.79086 9.20914 0 7 0C4.79086 0 3 1.79086 3 4ZM9.5 6.5H11C11.8284 6.5 12.5 7.17157 12.5 8V11C12.5 11.8284 11.8284 12.5 11 12.5H3C2.17157 12.5 1.5 11.8284 1.5 11V8C1.5 7.17157 2.17157 6.5 3 6.5H4.5H9.5ZM7.75 8.5C7.75 8.08579 7.41421 7.75 7 7.75C6.58579 7.75 6.25 8.08579 6.25 8.5V10.5C6.25 10.9142 6.58579 11.25 7 11.25C7.41421 11.25 7.75 10.9142 7.75 10.5V8.5Z"
        fill="inherit" />
</svg>