<svg width="48" height="48" viewBox="0 0 48 48" fill="none" xmlns="http://www.w3.org/2000/svg">
<path d="M31.0299 35.0332C31.6887 34.746 31.9627 34.3255 32.1608 34.0781C33.9388 31.8573 30.1452 25.2656 24.7291 21.4514C18.9889 16.4531 12.6686 14.7499 10.8906 16.9707C10.5855 17.3519 10.3463 17.8711 10.2467 18.457L6.8717 37.875C6.75452 40.2422 7.65927 41.1417 8.11204 41.5811C8.93249 42.3775 10.528 43.0547 12.192 42.4687C18.6139 39.9961 24.6301 37.8232 31.0299 35.0332Z" fill="url(#paint0_linear_180_14909)"/>
<path d="M31.0299 35.0332C31.6887 34.746 31.9627 34.3255 32.1608 34.0781C33.9388 31.8573 30.1452 25.2656 24.7291 21.4514C18.9889 16.4531 12.6686 14.7499 10.8906 16.9707C10.5855 17.3519 10.3463 17.8711 10.2467 18.457L6.8717 37.875C6.75452 40.2422 7.65927 41.1417 8.11204 41.5811C8.93249 42.3775 10.528 43.0547 12.192 42.4687C18.6139 39.9961 24.6301 37.8232 31.0299 35.0332Z" fill="url(#paint1_linear_180_14909)"/>
<path d="M31.0299 35.0332C31.6887 34.746 31.9627 34.3255 32.1608 34.0781C33.9388 31.8573 30.1452 25.2656 24.7291 21.4514C18.9889 16.4531 12.6686 14.7499 10.8906 16.9707C10.5855 17.3519 10.3463 17.8711 10.2467 18.457L6.8717 37.875C6.75452 40.2422 7.65927 41.1417 8.11204 41.5811C8.93249 42.3775 10.528 43.0547 12.192 42.4687C18.6139 39.9961 24.6301 37.8232 31.0299 35.0332Z" fill="url(#paint2_linear_180_14909)"/>
<path d="M31.0299 35.0332C31.6887 34.746 31.9627 34.3255 32.1608 34.0781C33.9388 31.8573 30.1452 25.2656 24.7291 21.4514C18.9889 16.4531 12.6686 14.7499 10.8906 16.9707C10.5855 17.3519 10.3463 17.8711 10.2467 18.457L6.8717 37.875C6.75452 40.2422 7.65927 41.1417 8.11204 41.5811C8.93249 42.3775 10.528 43.0547 12.192 42.4687C18.6139 39.9961 24.6301 37.8232 31.0299 35.0332Z" fill="url(#paint3_linear_180_14909)"/>
<path d="M31.0299 35.0332C31.6887 34.746 31.9627 34.3255 32.1608 34.0781C33.9388 31.8573 30.1452 25.2656 24.7291 21.4514C18.9889 16.4531 12.6686 14.7499 10.8906 16.9707C10.5855 17.3519 10.3463 17.8711 10.2467 18.457L6.8717 37.875C6.75452 40.2422 7.65927 41.1417 8.11204 41.5811C8.93249 42.3775 10.528 43.0547 12.192 42.4687C18.6139 39.9961 24.6301 37.8232 31.0299 35.0332Z" fill="url(#paint4_radial_180_14909)"/>
<ellipse cx="21.8318" cy="25.0303" rx="12.1953" ry="4.37303" transform="rotate(39.7456 21.8318 25.0303)" fill="url(#paint5_linear_180_14909)"/>
<ellipse cx="21.8318" cy="25.0303" rx="12.1953" ry="4.37303" transform="rotate(39.7456 21.8318 25.0303)" fill="url(#paint6_radial_180_14909)"/>
<ellipse cx="21.8318" cy="25.0303" rx="12.1953" ry="4.37303" transform="rotate(39.7456 21.8318 25.0303)" fill="url(#paint7_radial_180_14909)"/>
<circle cx="25.4341" cy="21.75" r="1.80469" fill="url(#paint8_radial_180_14909)"/>
<circle cx="25.4341" cy="21.75" r="1.80469" fill="url(#paint9_radial_180_14909)"/>
<circle cx="40.2466" cy="32.1094" r="1.80469" fill="url(#paint10_radial_180_14909)"/>
<circle cx="40.2466" cy="32.1094" r="1.80469" fill="url(#paint11_radial_180_14909)"/>
<circle cx="40.2466" cy="32.1094" r="1.80469" fill="url(#paint12_radial_180_14909)"/>
<circle cx="38.7349" cy="8.27344" r="1.80469" fill="url(#paint13_radial_180_14909)"/>
<circle cx="38.7349" cy="8.27344" r="1.80469" fill="url(#paint14_radial_180_14909)"/>
<circle cx="17.9863" cy="2.80078" r="1.80469" fill="url(#paint15_radial_180_14909)"/>
<circle cx="17.9863" cy="2.80078" r="1.80469" fill="url(#paint16_radial_180_14909)"/>
<circle cx="17.9863" cy="2.80078" r="1.80469" fill="url(#paint17_radial_180_14909)"/>
<circle cx="10.3926" cy="9.91406" r="1.80469" fill="url(#paint18_radial_180_14909)"/>
<circle cx="10.3926" cy="9.91406" r="1.80469" fill="url(#paint19_radial_180_14909)"/>
<path fill-rule="evenodd" clip-rule="evenodd" d="M31.656 0.87344C32.4422 0.910197 33.0497 1.57729 33.0129 2.36344C32.9623 3.44582 32.7653 5.24892 32.2951 7.17493C31.9021 8.7848 31.297 10.5704 30.3653 12.1013C30.5906 13.2956 30.5967 14.7048 30.3494 16.3072C30.2293 17.085 29.5015 17.6182 28.7237 17.4982C27.9459 17.3781 27.4127 16.6503 27.5327 15.8725C27.5881 15.514 27.6273 15.1782 27.6525 14.864C27.3759 15.0082 27.0926 15.1213 26.8035 15.2021C25.6738 15.5177 24.5903 15.2989 23.7428 14.7344C22.1327 13.6618 21.3903 11.3146 22.6366 9.39571C23.8222 7.57025 26.2932 7.07394 28.1722 8.37271C28.3888 8.52246 28.5923 8.69119 28.7819 8.87842C29.0817 8.12029 29.3281 7.31133 29.5264 6.49902C29.9482 4.77135 30.123 3.15186 30.166 2.23033C30.2028 1.44419 30.8699 0.836684 31.656 0.87344ZM27.2353 11.5842C27.019 11.1337 26.7621 10.8626 26.5517 10.7172C25.9639 10.3108 25.3177 10.5001 25.0267 10.9481C24.7147 11.4284 24.8798 12.0673 25.3229 12.3625C25.502 12.4818 25.7317 12.5424 26.0365 12.4572C26.3124 12.3801 26.7346 12.1563 27.2353 11.5842Z" fill="url(#paint20_linear_180_14909)"/>
<path fill-rule="evenodd" clip-rule="evenodd" d="M31.656 0.87344C32.4422 0.910197 33.0497 1.57729 33.0129 2.36344C32.9623 3.44582 32.7653 5.24892 32.2951 7.17493C31.9021 8.7848 31.297 10.5704 30.3653 12.1013C30.5906 13.2956 30.5967 14.7048 30.3494 16.3072C30.2293 17.085 29.5015 17.6182 28.7237 17.4982C27.9459 17.3781 27.4127 16.6503 27.5327 15.8725C27.5881 15.514 27.6273 15.1782 27.6525 14.864C27.3759 15.0082 27.0926 15.1213 26.8035 15.2021C25.6738 15.5177 24.5903 15.2989 23.7428 14.7344C22.1327 13.6618 21.3903 11.3146 22.6366 9.39571C23.8222 7.57025 26.2932 7.07394 28.1722 8.37271C28.3888 8.52246 28.5923 8.69119 28.7819 8.87842C29.0817 8.12029 29.3281 7.31133 29.5264 6.49902C29.9482 4.77135 30.123 3.15186 30.166 2.23033C30.2028 1.44419 30.8699 0.836684 31.656 0.87344ZM27.2353 11.5842C27.019 11.1337 26.7621 10.8626 26.5517 10.7172C25.9639 10.3108 25.3177 10.5001 25.0267 10.9481C24.7147 11.4284 24.8798 12.0673 25.3229 12.3625C25.502 12.4818 25.7317 12.5424 26.0365 12.4572C26.3124 12.3801 26.7346 12.1563 27.2353 11.5842Z" fill="url(#paint21_radial_180_14909)"/>
<path fill-rule="evenodd" clip-rule="evenodd" d="M31.656 0.87344C32.4422 0.910197 33.0497 1.57729 33.0129 2.36344C32.9623 3.44582 32.7653 5.24892 32.2951 7.17493C31.9021 8.7848 31.297 10.5704 30.3653 12.1013C30.5906 13.2956 30.5967 14.7048 30.3494 16.3072C30.2293 17.085 29.5015 17.6182 28.7237 17.4982C27.9459 17.3781 27.4127 16.6503 27.5327 15.8725C27.5881 15.514 27.6273 15.1782 27.6525 14.864C27.3759 15.0082 27.0926 15.1213 26.8035 15.2021C25.6738 15.5177 24.5903 15.2989 23.7428 14.7344C22.1327 13.6618 21.3903 11.3146 22.6366 9.39571C23.8222 7.57025 26.2932 7.07394 28.1722 8.37271C28.3888 8.52246 28.5923 8.69119 28.7819 8.87842C29.0817 8.12029 29.3281 7.31133 29.5264 6.49902C29.9482 4.77135 30.123 3.15186 30.166 2.23033C30.2028 1.44419 30.8699 0.836684 31.656 0.87344ZM27.2353 11.5842C27.019 11.1337 26.7621 10.8626 26.5517 10.7172C25.9639 10.3108 25.3177 10.5001 25.0267 10.9481C24.7147 11.4284 24.8798 12.0673 25.3229 12.3625C25.502 12.4818 25.7317 12.5424 26.0365 12.4572C26.3124 12.3801 26.7346 12.1563 27.2353 11.5842Z" fill="url(#paint22_radial_180_14909)"/>
<path fill-rule="evenodd" clip-rule="evenodd" d="M31.656 0.87344C32.4422 0.910197 33.0497 1.57729 33.0129 2.36344C32.9623 3.44582 32.7653 5.24892 32.2951 7.17493C31.9021 8.7848 31.297 10.5704 30.3653 12.1013C30.5906 13.2956 30.5967 14.7048 30.3494 16.3072C30.2293 17.085 29.5015 17.6182 28.7237 17.4982C27.9459 17.3781 27.4127 16.6503 27.5327 15.8725C27.5881 15.514 27.6273 15.1782 27.6525 14.864C27.3759 15.0082 27.0926 15.1213 26.8035 15.2021C25.6738 15.5177 24.5903 15.2989 23.7428 14.7344C22.1327 13.6618 21.3903 11.3146 22.6366 9.39571C23.8222 7.57025 26.2932 7.07394 28.1722 8.37271C28.3888 8.52246 28.5923 8.69119 28.7819 8.87842C29.0817 8.12029 29.3281 7.31133 29.5264 6.49902C29.9482 4.77135 30.123 3.15186 30.166 2.23033C30.2028 1.44419 30.8699 0.836684 31.656 0.87344ZM27.2353 11.5842C27.019 11.1337 26.7621 10.8626 26.5517 10.7172C25.9639 10.3108 25.3177 10.5001 25.0267 10.9481C24.7147 11.4284 24.8798 12.0673 25.3229 12.3625C25.502 12.4818 25.7317 12.5424 26.0365 12.4572C26.3124 12.3801 26.7346 12.1563 27.2353 11.5842Z" fill="url(#paint23_radial_180_14909)"/>
<path d="M26.929 36.7638C23.02 36.4922 20.2783 35.3222 15.8364 31.6523C12.0153 28.4953 10.1182 25.6946 9.48503 22.8386L8.75146 27.0591C9.05127 28.7109 10.3403 31.0195 12.895 33.3281C16.2363 36.3475 19.563 38.4844 22.8529 38.3907C24.2069 37.862 25.5629 37.3228 26.929 36.7638Z" fill="url(#paint24_radial_180_14909)"/>
<path d="M18.6855 39.9943C16.8068 40.0991 14.2661 38.5664 11.6294 36.375C9.37939 34.4297 8.26954 32.3162 8.03596 31.1758L7.29102 35.4618C7.47528 36.1863 8.03645 37.1711 9.66064 38.8359C11.4768 40.6975 13.3032 41.4219 14.3878 41.6279C15.1574 41.3346 15.9224 41.0442 16.6841 40.755C17.3535 40.5009 18.0203 40.2477 18.6855 39.9943Z" fill="url(#paint25_radial_180_14909)"/>
<path fill-rule="evenodd" clip-rule="evenodd" d="M44.8546 17.413C39.4578 16.3587 36.2688 18.8311 35.258 19.94C34.672 20.5828 33.6758 20.6289 33.033 20.0429C32.3902 19.4569 32.3441 18.4607 32.9301 17.8179C34.4974 16.0986 38.7381 13.0086 45.4585 14.3214C46.3122 14.4882 46.8691 15.3155 46.7023 16.1692C46.5356 17.0229 45.7083 17.5798 44.8546 17.413Z" fill="url(#paint26_radial_180_14909)"/>
<path fill-rule="evenodd" clip-rule="evenodd" d="M44.8546 17.413C39.4578 16.3587 36.2688 18.8311 35.258 19.94C34.672 20.5828 33.6758 20.6289 33.033 20.0429C32.3902 19.4569 32.3441 18.4607 32.9301 17.8179C34.4974 16.0986 38.7381 13.0086 45.4585 14.3214C46.3122 14.4882 46.8691 15.3155 46.7023 16.1692C46.5356 17.0229 45.7083 17.5798 44.8546 17.413Z" fill="url(#paint27_radial_180_14909)"/>
<path d="M22.2822 10.0673C22.3743 9.83952 22.4907 9.61483 22.633 9.39573C23.8186 7.57027 26.2897 7.07396 28.1686 8.37273C28.3853 8.52248 28.5887 8.69121 28.7783 8.87844C28.8396 8.72353 28.8986 8.56651 28.9554 8.40777C28.9583 8.41737 28.961 8.42692 28.9637 8.43642C28.5778 9.65224 27.7116 10.9538 27.2305 11.5817C27.0145 11.1327 26.7581 10.8623 26.5481 10.7172C25.9603 10.3109 25.3141 10.5001 25.0231 10.9481C25.0118 10.9655 25.0011 10.9832 24.9911 11.001L22.2822 10.0673Z" fill="url(#paint28_radial_180_14909)"/>
<path d="M22.2822 10.0673C22.3743 9.83952 22.4907 9.61483 22.633 9.39573C23.8186 7.57027 26.2897 7.07396 28.1686 8.37273C28.3853 8.52248 28.5887 8.69121 28.7783 8.87844C28.8396 8.72353 28.8986 8.56651 28.9554 8.40777C28.9583 8.41737 28.961 8.42692 28.9637 8.43642C28.5778 9.65224 27.7116 10.9538 27.2305 11.5817C27.0145 11.1327 26.7581 10.8623 26.5481 10.7172C25.9603 10.3109 25.3141 10.5001 25.0231 10.9481C25.0118 10.9655 25.0011 10.9832 24.9911 11.001L22.2822 10.0673Z" fill="url(#paint29_radial_180_14909)"/>
<path fill-rule="evenodd" clip-rule="evenodd" d="M23.7625 31.6592C22.7362 31.0918 21.6664 30.4045 20.5903 29.6111C22.2198 27.5912 25.1307 24.9421 28.9261 23.0289C35.1623 19.8855 42.0382 21.5916 44.8399 22.7023C45.8026 23.0839 46.2736 24.1737 45.892 25.1363C45.5104 26.099 44.4206 26.57 43.458 26.1884C41.0566 25.2364 35.4411 23.9444 30.614 26.3776C27.4303 27.9824 25.063 30.14 23.7625 31.6592Z" fill="url(#paint30_linear_180_14909)"/>
<path fill-rule="evenodd" clip-rule="evenodd" d="M23.7625 31.6592C22.7362 31.0918 21.6664 30.4045 20.5903 29.6111C22.2198 27.5912 25.1307 24.9421 28.9261 23.0289C35.1623 19.8855 42.0382 21.5916 44.8399 22.7023C45.8026 23.0839 46.2736 24.1737 45.892 25.1363C45.5104 26.099 44.4206 26.57 43.458 26.1884C41.0566 25.2364 35.4411 23.9444 30.614 26.3776C27.4303 27.9824 25.063 30.14 23.7625 31.6592Z" fill="url(#paint31_radial_180_14909)"/>
<path fill-rule="evenodd" clip-rule="evenodd" d="M23.7625 31.6592C22.7362 31.0918 21.6664 30.4045 20.5903 29.6111C22.2198 27.5912 25.1307 24.9421 28.9261 23.0289C35.1623 19.8855 42.0382 21.5916 44.8399 22.7023C45.8026 23.0839 46.2736 24.1737 45.892 25.1363C45.5104 26.099 44.4206 26.57 43.458 26.1884C41.0566 25.2364 35.4411 23.9444 30.614 26.3776C27.4303 27.9824 25.063 30.14 23.7625 31.6592Z" fill="url(#paint32_radial_180_14909)"/>
<path fill-rule="evenodd" clip-rule="evenodd" d="M23.7625 31.6592C22.7362 31.0918 21.6664 30.4045 20.5903 29.6111C22.2198 27.5912 25.1307 24.9421 28.9261 23.0289C35.1623 19.8855 42.0382 21.5916 44.8399 22.7023C45.8026 23.0839 46.2736 24.1737 45.892 25.1363C45.5104 26.099 44.4206 26.57 43.458 26.1884C41.0566 25.2364 35.4411 23.9444 30.614 26.3776C27.4303 27.9824 25.063 30.14 23.7625 31.6592Z" fill="url(#paint33_radial_180_14909)"/>
<path fill-rule="evenodd" clip-rule="evenodd" d="M18.2877 7.73003C17.7842 6.82515 16.6425 6.49979 15.7376 7.00331C14.8327 7.50683 14.5074 8.64856 15.0109 9.55343C15.7713 10.9199 16.7075 12.8488 16.8273 15.3327C16.9317 17.4973 16.422 20.2427 14.3496 23.5359C15.0667 24.4849 15.9326 25.4683 16.923 26.445C19.8449 22.1948 20.729 18.388 20.5729 15.152C20.4115 11.8057 19.1446 9.26985 18.2877 7.73003Z" fill="url(#paint34_radial_180_14909)"/>
<path fill-rule="evenodd" clip-rule="evenodd" d="M18.2877 7.73003C17.7842 6.82515 16.6425 6.49979 15.7376 7.00331C14.8327 7.50683 14.5074 8.64856 15.0109 9.55343C15.7713 10.9199 16.7075 12.8488 16.8273 15.3327C16.9317 17.4973 16.422 20.2427 14.3496 23.5359C15.0667 24.4849 15.9326 25.4683 16.923 26.445C19.8449 22.1948 20.729 18.388 20.5729 15.152C20.4115 11.8057 19.1446 9.26985 18.2877 7.73003Z" fill="url(#paint35_radial_180_14909)"/>
<path d="M30.3624 12.1025C30.5875 13.2966 30.5935 14.7054 30.3462 16.3072C30.2262 17.085 29.4983 17.6182 28.7205 17.4982C27.9427 17.3781 27.4095 16.6503 27.5296 15.8725C27.5848 15.5146 27.624 15.1795 27.6492 14.8657C29.1221 13.9409 30.0946 12.7105 30.3624 12.1025Z" fill="url(#paint36_radial_180_14909)"/>
<defs>
<linearGradient id="paint0_linear_180_14909" x1="9.33265" y1="27.7265" x2="21.4264" y2="38.2265" gradientUnits="userSpaceOnUse">
<stop stop-color="#B3843C"/>
<stop offset="1" stop-color="#F17A61"/>
</linearGradient>
<linearGradient id="paint1_linear_180_14909" x1="7.99627" y1="29.3515" x2="11.5358" y2="30.0703" gradientUnits="userSpaceOnUse">
<stop stop-color="#B1853B"/>
<stop offset="1" stop-color="#B1853B" stop-opacity="0"/>
</linearGradient>
<linearGradient id="paint2_linear_180_14909" x1="32.6039" y1="33.4922" x2="26.6295" y2="34.4765" gradientUnits="userSpaceOnUse">
<stop stop-color="#F9C26C"/>
<stop offset="1" stop-color="#F9C26C" stop-opacity="0"/>
</linearGradient>
<linearGradient id="paint3_linear_180_14909" x1="19.7326" y1="16.3359" x2="15.8951" y2="22.8515" gradientUnits="userSpaceOnUse">
<stop stop-color="#E6BF69"/>
<stop offset="1" stop-color="#E6BF69" stop-opacity="0"/>
</linearGradient>
<radialGradient id="paint4_radial_180_14909" cx="0" cy="0" r="1" gradientUnits="userSpaceOnUse" gradientTransform="translate(21.9048 24.6092) rotate(-49.3383) scale(6.52998 15.303)">
<stop stop-color="#F5BD55" stop-opacity="0"/>
<stop offset="0.836376" stop-color="#FCCB57"/>
<stop offset="1" stop-color="#FCCB57" stop-opacity="0"/>
</radialGradient>
<linearGradient id="paint5_linear_180_14909" x1="10.7212" y1="24.5469" x2="35.441" y2="25.7551" gradientUnits="userSpaceOnUse">
<stop stop-color="#F3AB2C"/>
<stop offset="1" stop-color="#B57F1E"/>
</linearGradient>
<radialGradient id="paint6_radial_180_14909" cx="0" cy="0" r="1" gradientUnits="userSpaceOnUse" gradientTransform="translate(15.6804 28.5313) rotate(-109.125) scale(9.71625 2.72141)">
<stop offset="0.423414" stop-color="#CA851E"/>
<stop offset="1" stop-color="#CA851E" stop-opacity="0"/>
</radialGradient>
<radialGradient id="paint7_radial_180_14909" cx="0" cy="0" r="1" gradientUnits="userSpaceOnUse" gradientTransform="translate(25.8532 28.6679) rotate(-73.0972) scale(9.76431 5.71807)">
<stop stop-color="#BC7F28"/>
<stop offset="1" stop-color="#BC7F28" stop-opacity="0"/>
</radialGradient>
<radialGradient id="paint8_radial_180_14909" cx="0" cy="0" r="1" gradientUnits="userSpaceOnUse" gradientTransform="translate(26.231 21.2578) rotate(138.668) scale(2.59067)">
<stop stop-color="#5AC0FF"/>
<stop offset="1" stop-color="#3279B6"/>
</radialGradient>
<radialGradient id="paint9_radial_180_14909" cx="0" cy="0" r="1" gradientUnits="userSpaceOnUse" gradientTransform="translate(25.7891 21.5014) rotate(160.051) scale(2.60158 2.85166)">
<stop offset="0.534713" stop-color="#3A619E" stop-opacity="0"/>
<stop offset="1" stop-color="#3A619E"/>
</radialGradient>
<radialGradient id="paint10_radial_180_14909" cx="0" cy="0" r="1" gradientUnits="userSpaceOnUse" gradientTransform="translate(41.2923 31.3467) rotate(134.569) scale(2.96629)">
<stop stop-color="#FDD46C"/>
<stop offset="1" stop-color="#F09C53"/>
</radialGradient>
<radialGradient id="paint11_radial_180_14909" cx="0" cy="0" r="1" gradientUnits="userSpaceOnUse" gradientTransform="translate(40.5826 31.189) rotate(100.827) scale(2.93824)">
<stop offset="0.792052" stop-color="#E76260" stop-opacity="0"/>
<stop offset="0.964251" stop-color="#E76260"/>
</radialGradient>
<radialGradient id="paint12_radial_180_14909" cx="0" cy="0" r="1" gradientUnits="userSpaceOnUse" gradientTransform="translate(41.1076 32.4072) rotate(-147.558) scale(2.97557 3.50414)">
<stop offset="0.482355" stop-color="#AA885A" stop-opacity="0"/>
<stop offset="0.90682" stop-color="#AA885A"/>
</radialGradient>
<radialGradient id="paint13_radial_180_14909" cx="0" cy="0" r="1" gradientUnits="userSpaceOnUse" gradientTransform="translate(40.0272 7.5712) rotate(132.387) scale(3.09018)">
<stop stop-color="#FF46AA"/>
<stop offset="1" stop-color="#E3189D"/>
</radialGradient>
<radialGradient id="paint14_radial_180_14909" cx="0" cy="0" r="1" gradientUnits="userSpaceOnUse" gradientTransform="translate(39.4966 8.60156) rotate(-173.29) scale(2.8083 3.75838)">
<stop offset="0.522105" stop-color="#B63173" stop-opacity="0"/>
<stop offset="1" stop-color="#B63173"/>
</radialGradient>
<radialGradient id="paint15_radial_180_14909" cx="0" cy="0" r="1" gradientUnits="userSpaceOnUse" gradientTransform="translate(19.1688 2.07839) rotate(139.574) scale(2.76177)">
<stop stop-color="#FFF46F"/>
<stop offset="1" stop-color="#EFB93C"/>
</radialGradient>
<radialGradient id="paint16_radial_180_14909" cx="0" cy="0" r="1" gradientUnits="userSpaceOnUse" gradientTransform="translate(18.7738 2.50854) rotate(-178.519) scale(2.87195 2.73446)">
<stop offset="0.558644" stop-color="#AA904B" stop-opacity="0"/>
<stop offset="0.943632" stop-color="#AA904B"/>
</radialGradient>
<radialGradient id="paint17_radial_180_14909" cx="0" cy="0" r="1" gradientUnits="userSpaceOnUse" gradientTransform="translate(18.4496 1.78125) rotate(102.339) scale(3.07094)">
<stop offset="0.771901" stop-color="#C47072" stop-opacity="0"/>
<stop offset="1" stop-color="#C47072"/>
</radialGradient>
<radialGradient id="paint18_radial_180_14909" cx="0" cy="0" r="1" gradientUnits="userSpaceOnUse" gradientTransform="translate(11.6849 9.21182) rotate(132.387) scale(3.09018)">
<stop stop-color="#FF46AA"/>
<stop offset="1" stop-color="#E3189D"/>
</radialGradient>
<radialGradient id="paint19_radial_180_14909" cx="0" cy="0" r="1" gradientUnits="userSpaceOnUse" gradientTransform="translate(11.1543 10.2422) rotate(-173.29) scale(2.8083 3.75838)">
<stop offset="0.522105" stop-color="#B63173" stop-opacity="0"/>
<stop offset="1" stop-color="#B63173"/>
</radialGradient>
<linearGradient id="paint20_linear_180_14909" x1="31.5934" y1="0.871857" x2="24.8706" y2="16.9843" gradientUnits="userSpaceOnUse">
<stop stop-color="#20B2EE"/>
<stop offset="1" stop-color="#2689DA"/>
</linearGradient>
<radialGradient id="paint21_radial_180_14909" cx="0" cy="0" r="1" gradientUnits="userSpaceOnUse" gradientTransform="translate(30.1178 6.10597) rotate(128.217) scale(11.641 7.12051)">
<stop offset="0.80204" stop-color="#4274D2" stop-opacity="0"/>
<stop offset="0.950917" stop-color="#4274D2"/>
</radialGradient>
<radialGradient id="paint22_radial_180_14909" cx="0" cy="0" r="1" gradientUnits="userSpaceOnUse" gradientTransform="translate(29.5355 4.75781) rotate(12.0948) scale(1.67787 5.63273)">
<stop stop-color="#4D8EC0"/>
<stop offset="1" stop-color="#4D8EC0" stop-opacity="0"/>
</radialGradient>
<radialGradient id="paint23_radial_180_14909" cx="0" cy="0" r="1" gradientUnits="userSpaceOnUse" gradientTransform="translate(32.8636 1.125) rotate(141.953) scale(2.05356 1.84629)">
<stop stop-color="#5ADEFF"/>
<stop offset="1" stop-color="#5ADEFF" stop-opacity="0"/>
</radialGradient>
<radialGradient id="paint24_radial_180_14909" cx="0" cy="0" r="1" gradientUnits="userSpaceOnUse" gradientTransform="translate(19.8325 35.3672) rotate(133.21) scale(6.36707 13.9403)">
<stop stop-color="#3365FF"/>
<stop offset="1" stop-color="#356DB9"/>
</radialGradient>
<radialGradient id="paint25_radial_180_14909" cx="0" cy="0" r="1" gradientUnits="userSpaceOnUse" gradientTransform="translate(14.1138 39.7734) rotate(131.598) scale(3.93026 9.9419)">
<stop stop-color="#3365FF"/>
<stop offset="1" stop-color="#356DB9"/>
</radialGradient>
<radialGradient id="paint26_radial_180_14909" cx="0" cy="0" r="1" gradientUnits="userSpaceOnUse" gradientTransform="translate(44.3011 15.586) rotate(168.283) scale(6.4628 2.41112)">
<stop stop-color="#FF3BA9"/>
<stop offset="1" stop-color="#F422A7"/>
</radialGradient>
<radialGradient id="paint27_radial_180_14909" cx="0" cy="0" r="1" gradientUnits="userSpaceOnUse" gradientTransform="translate(39.6254 20.7422) rotate(-127.355) scale(6.66361 11.8759)">
<stop offset="0.752144" stop-color="#B8306F" stop-opacity="0"/>
<stop offset="1" stop-color="#B8306F"/>
</radialGradient>
<radialGradient id="paint28_radial_180_14909" cx="0" cy="0" r="1" gradientUnits="userSpaceOnUse" gradientTransform="translate(28.5397 11.7621) rotate(-131.325) scale(4.41709 3.30182)">
<stop stop-color="#336BAF"/>
<stop offset="1" stop-color="#336BAF" stop-opacity="0"/>
</radialGradient>
<radialGradient id="paint29_radial_180_14909" cx="0" cy="0" r="1" gradientUnits="userSpaceOnUse" gradientTransform="translate(28.9637 8.92955) rotate(-127.657) scale(2.78267 1.12741)">
<stop stop-color="#49A4D4"/>
<stop offset="1" stop-color="#49A4D4" stop-opacity="0"/>
</radialGradient>
<linearGradient id="paint30_linear_180_14909" x1="24.6756" y1="30.2924" x2="44.7893" y2="25.0212" gradientUnits="userSpaceOnUse">
<stop stop-color="#3797E2"/>
<stop offset="1" stop-color="#37AEFF"/>
</linearGradient>
<radialGradient id="paint31_radial_180_14909" cx="0" cy="0" r="1" gradientUnits="userSpaceOnUse" gradientTransform="translate(32.1156 33.5813) rotate(-129.838) scale(11.97 30.0054)">
<stop offset="0.622552" stop-color="#526579" stop-opacity="0"/>
<stop offset="0.962126" stop-color="#526579"/>
</radialGradient>
<radialGradient id="paint32_radial_180_14909" cx="0" cy="0" r="1" gradientUnits="userSpaceOnUse" gradientTransform="translate(38.8384 27.1211) rotate(94.3987) scale(4.10881 8.26079)">
<stop offset="0.396078" stop-color="#6972FF"/>
<stop offset="1" stop-color="#6972FF" stop-opacity="0"/>
</radialGradient>
<radialGradient id="paint33_radial_180_14909" cx="0" cy="0" r="1" gradientUnits="userSpaceOnUse" gradientTransform="translate(44.9309 23.6678) rotate(-68.8186) scale(1.12655 0.888412)">
<stop stop-color="#55BFFF"/>
<stop offset="1" stop-color="#55BFFF" stop-opacity="0"/>
</radialGradient>
<radialGradient id="paint34_radial_180_14909" cx="0" cy="0" r="1" gradientUnits="userSpaceOnUse" gradientTransform="translate(19.2655 7.40438) rotate(99.4229) scale(10.9678 4.10896)">
<stop stop-color="#FF3AAA"/>
<stop offset="1" stop-color="#FD2F89"/>
</radialGradient>
<radialGradient id="paint35_radial_180_14909" cx="0" cy="0" r="1" gradientUnits="userSpaceOnUse" gradientTransform="translate(13.5392 18.7142) rotate(31.1757) scale(7.21268 22.6354)">
<stop offset="0.803698" stop-color="#DB2C6E" stop-opacity="0"/>
<stop offset="1" stop-color="#DB2C6E"/>
</radialGradient>
<radialGradient id="paint36_radial_180_14909" cx="0" cy="0" r="1" gradientUnits="userSpaceOnUse" gradientTransform="translate(29.7657 14.8088) rotate(98.0559) scale(5.30607 2.95306)">
<stop stop-color="#4AB5F8"/>
<stop offset="1" stop-color="#4AB5F8" stop-opacity="0"/>
</radialGradient>
</defs>
</svg>
