<svg width="14" height="14" viewBox="0 0 14 14" fill="none" xmlns="http://www.w3.org/2000/svg">
    <path fill-rule="evenodd" clip-rule="evenodd"
        d="M10.4233 0C12.3986 0 14 1.60135 14 3.57671C14 3.84774 13.8923 4.10767 13.7007 4.29931L13.1722 4.8278L11.201 6.799C11.2009 6.79911 11.2008 6.79921 11.2007 6.79931L6.14226 11.8577C5.72345 12.2765 5.19006 12.562 4.60928 12.6781L1.97084 13.2058C1.27112 13.3458 0.654201 12.7289 0.794145 12.0291L1.32183 9.39069C1.43799 8.80992 1.72345 8.27652 2.14226 7.85772L7.20066 2.79931C7.20086 2.79911 7.20106 2.79891 7.20126 2.79871L9.70066 0.299313C9.89231 0.107666 10.1522 0 10.4233 0ZM8.11276 4.00853L3.20292 8.91838C2.99351 9.12778 2.85078 9.39448 2.7927 9.68486L2.4121 11.5879L4.31511 11.2073C4.5692 11.1564 4.80515 11.0408 5.00045 10.8724C5.02835 10.8484 5.05542 10.8232 5.0816 10.7971L9.99144 5.88721C9.90137 4.8915 9.10847 4.0986 8.11276 4.00853ZM11.2115 4.66715C10.8501 3.82518 10.1748 3.14986 9.33282 2.78847L10.6128 1.50853C11.6085 1.5986 12.4014 2.3915 12.4914 3.38721L11.2115 4.66715Z"
        fill="inherit" />
</svg>