<svg width="4" height="4" viewBox="0 0 4 4" fill="none" xmlns="http://www.w3.org/2000/svg">
    <path
        d="M2.16902 3.7983C1.91121 3.7983 1.67577 3.73544 1.4627 3.60973C1.24963 3.48189 1.07918 3.31143 0.951338 3.09837C0.825628 2.8853 0.762773 2.64986 0.762773 2.39205C0.762773 2.1321 0.825628 1.89666 0.951338 1.68572C1.07918 1.47266 1.24963 1.30327 1.4627 1.17756C1.67577 1.04972 1.91121 0.985795 2.16902 0.985795C2.42897 0.985795 2.66441 1.04972 2.87534 1.17756C3.08841 1.30327 3.2578 1.47266 3.38351 1.68572C3.51135 1.89666 3.57527 2.1321 3.57527 2.39205C3.57527 2.64986 3.51135 2.8853 3.38351 3.09837C3.2578 3.31143 3.08841 3.48189 2.87534 3.60973C2.66441 3.73544 2.42897 3.7983 2.16902 3.7983Z"
        fill="inherit" />
</svg>