<svg width="14" height="14" viewBox="0 0 14 14" fill="none" xmlns="http://www.w3.org/2000/svg">
    <path fill-rule="evenodd" clip-rule="evenodd"
        d="M7.00009 0.5C10.3016 0.5 13.0272 2.96074 13.4447 6.14851C13.4985 6.55921 13.2092 6.93577 12.7985 6.98957C12.3878 7.04337 12.0112 6.75404 11.9574 6.34333C11.6364 3.89253 9.53866 2 7.00009 2C5.60171 2 4.33751 2.57344 3.42933 3.5H4.7501C5.16431 3.5 5.5001 3.83579 5.5001 4.25C5.5001 4.66421 5.16431 5 4.7501 5H1.7501C1.33588 5 1.0001 4.66421 1.0001 4.25V1.25C1.0001 0.835786 1.33588 0.5 1.7501 0.5C2.16431 0.5 2.5001 0.835786 2.5001 1.25V2.30963C3.66737 1.1896 5.25331 0.5 7.00009 0.5ZM12.2501 13.5C12.6643 13.5 13.0001 13.1642 13.0001 12.75L13.0001 9.75C13.0001 9.33579 12.6643 9 12.2501 9H9.2501C8.83588 9 8.5001 9.33579 8.5001 9.75C8.5001 10.1642 8.83589 10.5 9.2501 10.5H10.5709C9.66268 11.4266 8.39848 12 7.00011 12C4.46154 12 2.36379 10.1075 2.04276 7.65667C1.98896 7.24596 1.6124 6.95663 1.2017 7.01043C0.790994 7.06423 0.501663 7.44079 0.555462 7.85149C0.973028 11.0393 3.6986 13.5 7.00011 13.5C8.74689 13.5 10.3328 12.8104 11.5001 11.6904L11.5001 12.75C11.5001 13.1642 11.8359 13.5 12.2501 13.5Z"
        fill="inherit" />
</svg>