<svg width="12" height="14" viewBox="0 0 12 14" fill="none" xmlns="http://www.w3.org/2000/svg">
    <path fill-rule="evenodd" clip-rule="evenodd"
        d="M6 8.52438L6.97619 9.36112L9.96363 11.9218C10.0225 11.9723 10.0975 12 10.1751 12C10.3545 12 10.5 11.8545 10.5 11.6751V3.5C10.5 2.67157 9.82843 2 9 2L3 2C2.17157 2 1.5 2.67157 1.5 3.5L1.5 11.6751C1.5 11.8545 1.64547 12 1.82492 12C1.90248 12 1.97748 11.9723 2.03637 11.9218L5.02381 9.36112L6 8.52438ZM12 3.5C12 1.84315 10.6569 0.5 9 0.5L3 0.5C1.34315 0.5 7.24234e-08 1.84315 0 3.5L5.9633e-07 11.6751C5.52275e-07 12.683 0.817045 13.5 1.82492 13.5C2.26055 13.5 2.68181 13.3442 3.01256 13.0607L6 10.5L8.98744 13.0607C9.31819 13.3442 9.73945 13.5 10.1751 13.5C11.183 13.5 12 12.683 12 11.6751V3.5Z"
        fill="inherit" />
</svg>