<svg width="22" height="24" viewBox="0 0 22 24" fill="none" xmlns="http://www.w3.org/2000/svg">
    <path fill-rule="evenodd" clip-rule="evenodd"
        d="M9.79813 3H12.2019C12.3665 3 12.5 3.13345 12.5 3.2981C12.5 6.01082 15.4366 7.70644 17.786 6.35001C17.9285 6.26771 18.1108 6.31655 18.1931 6.4591L19.3951 8.54092C19.4774 8.68349 19.4285 8.8658 19.2859 8.94812C16.9366 10.3045 16.9366 13.6955 19.2859 15.0519C19.4285 15.1343 19.4774 15.3166 19.3951 15.4592L18.1931 17.541C18.1108 17.6835 17.9285 17.7324 17.786 17.6501C15.4366 16.2937 12.5 17.9892 12.5 20.7019C12.5 20.8666 12.3665 21 12.2019 21H9.79809C9.63345 21 9.49998 20.8665 9.49998 20.7019C9.49998 17.989 6.5632 16.2936 4.21388 17.65C4.07125 17.7323 3.88888 17.6834 3.80656 17.5409L2.60469 15.4592C2.52238 15.3166 2.57123 15.1343 2.7138 15.0519C5.06317 13.6955 5.06317 10.3045 2.7138 8.94812C2.57123 8.8658 2.52238 8.68349 2.60469 8.54091L3.80656 6.45921C3.8889 6.31661 4.07125 6.26774 4.21387 6.35008C6.56324 7.70649 9.49998 6.011 9.49998 3.29815C9.49998 3.13348 9.63347 3 9.79813 3ZM7.24998 3.29815C7.24998 1.89084 8.39083 0.75 9.79813 0.75H12.2019C13.6092 0.75 14.75 1.89084 14.75 3.2981C14.75 4.27884 15.8117 4.89182 16.661 4.40145C17.8797 3.69784 19.4381 4.11539 20.1417 5.3341L21.3436 7.41592C22.0472 8.63465 21.6297 10.193 20.4109 10.8967C19.5616 11.3871 19.5616 12.613 20.4109 13.1034C21.6297 13.807 22.0472 15.3654 21.3436 16.5842L20.1417 18.666C19.4381 19.8847 17.8797 20.3022 16.661 19.5986C15.8117 19.1082 14.75 19.7212 14.75 20.7019C14.75 22.1092 13.6092 23.25 12.2019 23.25H9.79809C8.39081 23.25 7.24998 22.1092 7.24998 20.7019C7.24998 19.7211 6.18825 19.1081 5.33888 19.5985C4.12012 20.3022 2.56166 19.8846 1.85801 18.6659L0.656137 16.5842C-0.0475005 15.3654 0.370069 13.807 1.5888 13.1034C2.43817 12.613 2.43817 11.3871 1.5888 10.8967C0.370069 10.193 -0.0474998 8.63465 0.656137 7.41591L1.85801 5.33421C2.56166 4.11545 4.1201 3.69787 5.33887 4.40152C6.18825 4.89192 7.24998 4.27893 7.24998 3.29815ZM13.2499 12C13.2499 13.2426 12.2426 14.25 10.9999 14.25C9.7573 14.25 8.74994 13.2426 8.74994 12C8.74994 10.7574 9.7573 9.75 10.9999 9.75C12.2426 9.75 13.2499 10.7574 13.2499 12ZM15.4999 12C15.4999 14.4853 13.4852 16.5 10.9999 16.5C8.51466 16.5 6.49995 14.4853 6.49995 12C6.49995 9.51472 8.51466 7.5 10.9999 7.5C13.4852 7.5 15.4999 9.51472 15.4999 12Z"
        fill="inherit" />
</svg>