<svg width="24" height="24" viewBox="0 0 24 24" fill="none" xmlns="http://www.w3.org/2000/svg">
    <path fill-rule="evenodd" clip-rule="evenodd"
        d="M8.27199 5.24994H9.20397L9.86298 4.59093L11.4696 2.98432C11.7625 2.69143 12.2374 2.69142 12.5303 2.98432L14.1369 4.59093L14.7959 5.24994H15.7279H17.9999C18.4141 5.24994 18.7499 5.58573 18.7499 5.99994V8.27201V9.20399L19.4089 9.863L21.0155 11.4696C21.3084 11.7625 21.3084 12.2374 21.0155 12.5303L19.4089 14.1369L18.7499 14.7959V15.7278V17.9999C18.7499 18.4142 18.4141 18.7499 17.9999 18.7499H15.7278H14.7959L14.1368 19.409L12.5303 21.0155C12.2374 21.3084 11.7625 21.3084 11.4696 21.0155L9.86301 19.409L9.204 18.7499H8.27202H5.99993C5.58572 18.7499 5.24993 18.4142 5.24993 17.9999V15.7279V14.7959L4.59092 14.1369L2.98432 12.5303C2.69142 12.2374 2.69143 11.7625 2.98432 11.4696L4.59092 9.863L5.24993 9.20399V8.27201V5.99994C5.24993 5.58573 5.58572 5.24994 5.99993 5.24994H8.27199ZM14.1213 1.39333C12.9497 0.221755 11.0502 0.221755 9.87861 1.39333L8.27199 2.99994H5.99993C4.34308 2.99994 2.99993 4.34309 2.99993 5.99994V8.27201L1.39333 9.87861C0.221755 11.0502 0.221755 12.9497 1.39333 14.1213L2.99993 15.7279V17.9999C2.99993 19.6568 4.34308 20.9999 5.99993 20.9999H8.27202L9.87861 22.6065C11.0502 23.7781 12.9497 23.7781 14.1213 22.6065L15.7278 20.9999H17.9999C19.6568 20.9999 20.9999 19.6568 20.9999 17.9999V15.7278L22.6065 14.1213C23.7781 12.9497 23.7781 11.0502 22.6065 9.87861L20.9999 8.27201V5.99994C20.9999 4.34309 19.6568 2.99994 17.9999 2.99994H15.7279L14.1213 1.39333ZM16.65 9.67494C17.0228 9.17788 16.922 8.47273 16.425 8.09994C15.9279 7.72715 15.2228 7.82788 14.85 8.32494L11.1283 13.2872L9.04548 11.2044C8.60614 10.7651 7.89383 10.7651 7.45449 11.2044C7.01515 11.6438 7.01515 12.3561 7.45449 12.7954L10.4545 15.7954C10.6851 16.026 11.0044 16.1452 11.3297 16.1221C11.655 16.099 11.9543 15.9358 12.15 15.6749L16.65 9.67494Z"
        fill="inherit" />
</svg>