<svg width="14" height="14" viewBox="0 0 14 14" fill="none" xmlns="http://www.w3.org/2000/svg">
    <path fill-rule="evenodd" clip-rule="evenodd"
        d="M12.5 7C12.5 10.0376 10.0376 12.5 7 12.5C3.96243 12.5 1.5 10.0376 1.5 7C1.5 3.96243 3.96243 1.5 7 1.5C10.0376 1.5 12.5 3.96243 12.5 7ZM14 7C14 10.866 10.866 14 7 14C3.13401 14 0 10.866 0 7C0 3.13401 3.13401 0 7 0C10.866 0 14 3.13401 14 7ZM4.5 6.25C4.08579 6.25 3.75 6.58579 3.75 7C3.75 7.41421 4.08579 7.75 4.5 7.75H9.5C9.91421 7.75 10.25 7.41421 10.25 7C10.25 6.58579 9.91421 6.25 9.5 6.25H4.5Z"
        fill="inherit" />
</svg>