<svg width="22" height="22" viewBox="0 0 22 22" fill="none" xmlns="http://www.w3.org/2000/svg">
    <path
        d="M11 12.6134L11.1276 12.4539C11.476 12.0183 11.4492 11.4021 11.0888 11C11.0611 10.9692 11.0315 10.9396 11 10.9114C10.9847 10.8978 10.969 10.8845 10.9528 10.8715C10.4838 10.4963 9.80667 10.5573 9.41144 11C9.39779 11.0153 9.38364 11.0321 9.37069 11.0483L7.15672 13.8157L6.5455 13.2045C6.39568 13.0547 6.21411 12.956 6.02245 12.9083C5.6711 12.821 5.28581 12.9054 5 13.1614C4.98454 13.1753 4.96936 13.1896 4.9545 13.2045C4.51516 13.6438 4.51593 14.3569 4.95527 14.7963L5.56573 15.4067L6.4545 16.2955C6.68078 16.5218 6.9927 16.641 7.31221 16.6233C7.63172 16.6056 7.92858 16.4527 8.12848 16.2028L8.91234 15.223L8.91367 15.2213L11 12.6134Z"
        fill="inherit" />
    <path fill-rule="evenodd" clip-rule="evenodd"
        d="M17 15.5C19.4853 15.5 21.5 13.4853 21.5 11V5C21.5 2.51472 19.4853 0.5 17 0.5H11C8.51472 0.5 6.5 2.51472 6.5 5V6.5H5C2.51472 6.5 0.5 8.51472 0.5 11V17C0.5 19.4853 2.51472 21.5 5 21.5H11C13.4853 21.5 15.5 19.4853 15.5 17V15.5H17ZM5 8.75C3.75736 8.75 2.75 9.75736 2.75 11V17C2.75 18.2426 3.75736 19.25 5 19.25H11C12.2426 19.25 13.25 18.2426 13.25 17V11C13.25 10.2471 12.8802 9.58055 12.3123 9.17212C11.9429 8.90646 11.4897 8.75 11 8.75H5ZM19.25 5C19.25 3.75736 18.2426 2.75 17 2.75H11C10.0203 2.75 9.18691 3.37611 8.87803 4.25C8.79512 4.48458 8.75 4.73702 8.75 5V6.5H11C13.4853 6.5 15.5 8.51472 15.5 11V13.25H17C17.263 13.25 17.5154 13.2049 17.75 13.122C18.6239 12.8131 19.25 11.9797 19.25 11V5Z"
        fill="inherit" />
</svg>