<svg width="80" height="80" viewBox="0 0 80 80" fill="none" xmlns="http://www.w3.org/2000/svg">
<path fill-rule="evenodd" clip-rule="evenodd" d="M31.4284 60C47.2079 60 59.9998 47.2082 59.9998 31.4286C59.9998 15.649 47.2079 2.85718 31.4284 2.85718C15.6488 2.85718 2.85693 15.649 2.85693 31.4286C2.85693 47.2082 15.6488 60 31.4284 60Z" fill="#30AA6E"/>
<g filter="url(#filter0_b_149_15778)">
<path fill-rule="evenodd" clip-rule="evenodd" d="M42.857 77.143C61.7925 77.143 77.1427 61.7927 77.1427 42.8572C77.1427 23.9218 61.7925 8.57153 42.857 8.57153C23.9215 8.57153 8.57129 23.9218 8.57129 42.8572C8.57129 61.7927 23.9215 77.143 42.857 77.143ZM58.0407 35.2654C59.258 33.6424 58.929 31.3398 57.306 30.1226C55.6829 28.9053 53.3804 29.2342 52.1631 30.8572L40.0106 47.0606L33.2096 40.2597C31.7751 38.8251 29.4491 38.8251 28.0146 40.2597C26.58 41.6943 26.58 44.0202 28.0146 45.4548L37.8105 55.2507C38.5635 56.0037 39.6062 56.3929 40.6684 56.3174C41.7307 56.2419 42.7079 55.7092 43.3468 54.8572L58.0407 35.2654Z" fill="url(#paint0_linear_149_15778)"/>
</g>
<defs>
<filter id="filter0_b_149_15778" x="-13.8287" y="-13.8285" width="113.371" height="113.372" filterUnits="userSpaceOnUse" color-interpolation-filters="sRGB">
<feFlood flood-opacity="0" result="BackgroundImageFix"/>
<feGaussianBlur in="BackgroundImageFix" stdDeviation="11.2"/>
<feComposite in2="SourceAlpha" operator="in" result="effect1_backgroundBlur_149_15778"/>
<feBlend mode="normal" in="SourceGraphic" in2="effect1_backgroundBlur_149_15778" result="shape"/>
</filter>
<linearGradient id="paint0_linear_149_15778" x1="12.857" y1="25.7144" x2="69.7958" y2="64.8981" gradientUnits="userSpaceOnUse">
<stop stop-color="white" stop-opacity="0.46"/>
<stop offset="0.26" stop-color="#8BDEB5" stop-opacity="0.4"/>
<stop offset="0.500909" stop-color="#8BDEB5" stop-opacity="0.5"/>
<stop offset="0.735" stop-color="#8BDEB5" stop-opacity="0.6"/>
<stop offset="1" stop-color="white" stop-opacity="0.2"/>
<stop offset="1" stop-color="#8BDEB5" stop-opacity="0.7"/>
</linearGradient>
</defs>
</svg>
