<svg width="24" height="18" viewBox="0 0 24 18" fill="none" xmlns="http://www.w3.org/2000/svg">
<rect x="0.25" y="0.25" width="23.5" height="17.5" rx="1.75" fill="white" stroke="#F5F5F5" stroke-width="0.5"/>
<mask id="mask0_237_1193" style="mask-type:luminance" maskUnits="userSpaceOnUse" x="0" y="0" width="24" height="18">
<rect x="0.25" y="0.25" width="23.5" height="17.5" rx="1.75" fill="white" stroke="white" stroke-width="0.5"/>
</mask>
<g mask="url(#mask0_237_1193)">
<path fill-rule="evenodd" clip-rule="evenodd" d="M0 6H24V0H0V6Z" fill="#04AAC8"/>
<path fill-rule="evenodd" clip-rule="evenodd" d="M0 18H24V12H0V18Z" fill="#23C840"/>
<path fill-rule="evenodd" clip-rule="evenodd" d="M4.00001 4.80001C4.35253 4.80001 4.6802 4.68828 4.95266 4.49671C4.92109 4.4989 4.88924 4.50001 4.85715 4.50001C4.06817 4.50001 3.42858 3.82844 3.42858 3.00001C3.42858 2.17159 4.06817 1.50001 4.85715 1.50001C4.88924 1.50001 4.92109 1.50112 4.95266 1.50331C4.6802 1.31174 4.35253 1.20001 4.00001 1.20001C3.05323 1.20001 2.28572 2.0059 2.28572 3.00001C2.28572 3.99412 3.05323 4.80001 4.00001 4.80001ZM6.85715 4.20001C6.85715 4.53138 6.60131 4.80001 6.28572 4.80001C5.97013 4.80001 5.71429 4.53138 5.71429 4.20001C5.71429 3.86864 5.97013 3.60001 6.28572 3.60001C6.60131 3.60001 6.85715 3.86864 6.85715 4.20001ZM8.57143 2.40001C8.88703 2.40001 9.14286 2.13138 9.14286 1.80001C9.14286 1.46864 8.88703 1.20001 8.57143 1.20001C8.25584 1.20001 8.00001 1.46864 8.00001 1.80001C8.00001 2.13138 8.25584 2.40001 8.57143 2.40001ZM11.4286 1.80001C11.4286 2.13138 11.1727 2.40001 10.8571 2.40001C10.5416 2.40001 10.2857 2.13138 10.2857 1.80001C10.2857 1.46864 10.5416 1.20001 10.8571 1.20001C11.1727 1.20001 11.4286 1.46864 11.4286 1.80001ZM10.8571 4.80001C11.1727 4.80001 11.4286 4.53138 11.4286 4.20001C11.4286 3.86864 11.1727 3.60001 10.8571 3.60001C10.5416 3.60001 10.2857 3.86864 10.2857 4.20001C10.2857 4.53138 10.5416 4.80001 10.8571 4.80001ZM9.14286 4.20001C9.14286 4.53138 8.88703 4.80001 8.57143 4.80001C8.25584 4.80001 8.00001 4.53138 8.00001 4.20001C8.00001 3.86864 8.25584 3.60001 8.57143 3.60001C8.88703 3.60001 9.14286 3.86864 9.14286 4.20001Z" fill="white"/>
</g>
</svg>
