<svg width="26" height="16" viewBox="0 0 26 16" fill="none" xmlns="http://www.w3.org/2000/svg">
<g clip-path="url(#clip0_1219_37984)">
<path fill-rule="evenodd" clip-rule="evenodd" d="M19 8.47495C19 10.6802 18.5025 12.3234 17.508 13.3943C16.5136 14.4652 14.9774 15.0003 12.9061 15.0003C10.9711 15.0003 9.50262 14.4649 8.50169 13.3943C7.50047 12.3237 7 10.7091 7 8.55033V1.30779C7.00059 1.13796 7.13622 1.0006 7.30363 1H10.8125C10.9802 1.0006 11.1158 1.13796 11.1164 1.30779V8.70855C11.1164 9.58992 11.2774 10.2684 11.6051 10.7469C12.195 11.5389 13.3072 11.6965 14.0892 11.0991C14.2066 11.0094 14.3125 10.9054 14.4043 10.7892C14.7247 10.3402 14.8842 9.67841 14.8833 8.8039V7.41808H19V8.47465V8.47495Z" fill="#203E7A"/>
<path fill-rule="evenodd" clip-rule="evenodd" d="M18.6809 6.60882H14.8828V1.3221C14.8834 1.14421 15.0255 1.0003 15.2009 1H15.7693C15.7705 2.80505 17.2157 4.26774 18.998 4.26774H18.9989V6.60882H18.6806H18.6809Z" fill="#203E7A"/>
<path fill-rule="evenodd" clip-rule="evenodd" d="M16.5804 1.0003H18.6829C18.8585 1.00089 19.0006 1.14481 19.0009 1.32239V3.45431C17.664 3.45431 16.5801 2.35662 16.5801 1.00268V1L16.5804 1.0003Z" fill="#F4821F"/>
</g>
<defs>
<clipPath id="clip0_1219_37984">
<rect width="12" height="14" fill="white" transform="translate(7 1)"/>
</clipPath>
</defs>
</svg>
