<svg width="26" height="16" viewBox="0 0 26 16" fill="none" xmlns="http://www.w3.org/2000/svg">
<path d="M18.9005 4.32769C18.2962 4.10663 17.6575 3.9957 17.0144 4.00013C14.9348 4.00013 13.466 5.05199 13.4556 6.56191C13.4426 7.67119 14.4993 8.29631 15.2987 8.66694C16.1189 9.04801 16.3931 9.28813 16.3905 9.62875C16.3853 10.1468 15.7354 10.3818 15.131 10.3818C14.3005 10.3818 13.8468 10.2656 13.1488 9.97458L12.8902 9.85322L12.5951 11.5915C13.1007 11.8029 14.0119 11.9843 14.953 12C17.1639 12 18.6093 10.9547 18.6262 9.34817C18.6444 8.46205 18.0725 7.79256 16.8689 7.23923C16.1371 6.88034 15.6834 6.64022 15.6834 6.27611C15.6834 5.95377 16.0721 5.60924 16.8845 5.60924C17.4251 5.5961 17.9624 5.69795 18.4611 5.90809L18.6561 5.99553L18.9512 4.31595L18.9005 4.32769ZM24.2973 4.14107H22.6725C22.1669 4.14107 21.786 4.28071 21.5651 4.78445L18.4403 11.8917H20.6513L21.0932 10.7263L23.7916 10.7289C23.8553 11.0016 24.0503 11.8917 24.0503 11.8917H26L24.2973 4.14107ZM10.4647 4.07582H12.5717L11.2537 11.8303H9.14933L10.4647 4.07321V4.07582ZM5.11603 8.34981L5.3344 9.42647L7.39329 4.14107H9.62506L6.30925 11.8812H4.08269L2.26296 5.32735C2.23349 5.21928 2.16427 5.12647 2.06929 5.06765C1.41341 4.72747 0.718461 4.46932 0 4.29898L0.0285957 4.13585H3.41979C3.87992 4.15412 4.25036 4.29898 4.37384 4.79228L5.11473 8.35373L5.11603 8.34981ZM21.6976 9.14066L22.5373 6.97169C22.5269 6.99519 22.7102 6.52407 22.8168 6.23304L22.9611 6.90253L23.4485 9.13936H21.6963L21.6976 9.14066Z" fill="#0E4595"/>
</svg>
